<?xml version="1.0" encoding="utf-8"?>
<!-- Generator: Adobe Illustrator 24.0.2, SVG Export Plug-In . SVG Version: 6.00 Build 0)  -->
<svg version="1.1" id="Capa_1" xmlns="http://www.w3.org/2000/svg" xmlns:xlink="http://www.w3.org/1999/xlink" x="0px" y="0px"
	 viewBox="0 0 80.65 74.1" style="enable-background:new 0 0 80.65 74.1;" xml:space="preserve">
<style type="text/css">
	.st0{fill:#FFFFFF;}
	.st1{fill:#EFC100;}
	.st2{fill:#1D1D1B;}
	.st3{opacity:0.6;fill:#1D1D1B;}
	.st4{fill:url(#SVGID_19_);}
	.st5{opacity:0.5;}
	.st6{fill:url(#SVGID_28_);}
	.st7{fill:url(#SVGID_29_);}
	.st8{fill:#7FFF00;}
	.st9{fill:#B7B7B7;}
	.st10{fill:#D8D8D8;}
</style>
<g>
	<path class="st0" d="M20.11,67.87c-1.72,0-2.86-1.16-2.86-2.9l0-7.8c0-6.63,0-13.25-0.01-19.88c0-0.36-0.07-0.74-0.19-1.08
		c-1.23-3.43-2.46-6.86-3.7-10.3l-1.68-4.68c-0.61-1.7,0.06-3.14,1.74-3.77l0.67-0.25c0.81-0.31,1.65-0.62,2.49-0.89
		c0.51-0.17,0.71-0.46,0.69-1.01c-0.03-0.56-0.02-1.13-0.01-1.7l0-0.62c0.01-1.72,1.16-2.88,2.87-2.88l4.61,0
		c2.73,0,5.45,0,8.18-0.01c0.34,0,0.69-0.07,1.03-0.19c2.88-1.04,5.75-2.09,8.62-3.14l1.34-0.49l0.05-0.05h1.03
		c1.62,0.4,2.06,1.74,2.52,3.15c0.07,0.2,0.25,0.72,0.25,0.72l8.89,0c1.72,0,2.88,1.15,2.89,2.86c0,1.18,0,2.36,0,3.54
		c0,0.61-0.3,0.98-0.78,0.98c-0.68,0-0.78-0.62-0.78-0.99c0-0.58,0-1.16,0-1.73c0-0.57,0-1.13,0-1.7c-0.01-0.98-0.41-1.38-1.39-1.38
		l-36.32,0c-1.01,0-1.41,0.4-1.41,1.42c0,17.25,0,34.51,0,51.76c0,1.02,0.41,1.44,1.4,1.44l31.28,0c0.09,0,0.17-0.01,0.28-0.02
		l0.35-0.03v-2.83c0-1.84,1.11-2.95,2.97-2.95l2.81,0v-10.5l-0.5,0.45c-0.11,0.1-0.21,0.19-0.3,0.28l-2.22,2.22
		c-2.17,2.17-4.34,4.34-6.52,6.5c-0.27,0.27-0.63,0.5-0.98,0.62c-1.91,0.67-3.84,1.3-5.5,1.84c-0.33,0.11-0.66,0.16-0.97,0.16
		c-3.63,0.01-7.27,0.01-10.9,0.01l-7.7,0c-0.17,0-0.35,0-0.52-0.03c-0.41-0.07-0.67-0.38-0.66-0.78c0.01-0.4,0.32-0.73,0.74-0.76
		c0.07-0.01,0.13-0.01,0.2-0.01l0.28,0l6.82,0c3.62,0,7.23,0,10.85,0.01c0.46,0,0.77-0.11,0.95-0.67c0.45-1.46,0.96-2.99,1.55-4.66
		c0.12-0.35,0.34-0.69,0.59-0.94c4.79-4.81,9.59-9.61,14.4-14.41c0.32-0.32,0.45-0.65,0.45-1.1c-0.01-4.87-0.01-9.73-0.01-14.6
		l0-3.14c0-0.15,0-0.3,0.01-0.45c0.05-0.44,0.35-0.72,0.77-0.72c0.44,0,0.75,0.3,0.79,0.77c0.01,0.11,0.01,0.23,0,0.34l0,16.9
		l0.31-0.31c0.32-0.32,0.62-0.64,0.92-0.95c0.69-0.71,1.33-1.38,2.03-1.99c0.59-0.52,1.25-0.9,1.86-1.07
		c0.3-0.09,0.61-0.13,0.93-0.13c1.28,0,2.49,0.73,3.16,1.89c0.83,1.46,0.59,3.25-0.62,4.47c-2.19,2.22-4.4,4.42-6.62,6.61
		c-0.37,0.37-0.45,0.71-0.26,1.2c0.54,1.44,1.06,2.89,1.58,4.34l0.34,0.95c0.63,1.75-0.04,3.18-1.79,3.84
		c-0.38,0.14-1.84,0.68-1.84,0.68l0,1.14c0,0.84-0.01,1.66,0.01,2.49c0.01,0.43-0.12,0.74-0.42,1.05c-0.69,0.68-1.37,1.36-2.05,2.05
		c-1.13,1.13-2.26,2.26-3.41,3.37c-0.24,0.23-0.66,0.41-0.98,0.41c-7.18,0.02-14.35,0.02-21.53,0.02L20.11,67.87z M55.26,62.07
		c-0.27,0-0.49,0.02-0.69,0.06c-0.33,0.07-0.72,0.48-0.8,0.83c-0.08,0.38-0.06,0.77-0.05,1.14c0.01,0.15,0.01,0.3,0.01,0.44v0.44
		l2.93-2.88h-0.45c-0.16,0-0.32-0.01-0.47-0.01C55.58,62.08,55.42,62.07,55.26,62.07z M42.53,60.04l3.43-1.16l-2.29-2.25
		L42.53,60.04z M44.58,55.06l2.92,2.93L65.6,39.88l-2.92-2.91L44.58,55.06z M59.53,48.6v7.04l0.59-0.21
		c0.25-0.09,0.48-0.17,0.72-0.26c0.89-0.33,1.15-0.88,0.83-1.78c-0.5-1.4-1-2.81-1.51-4.21c-0.04-0.12-0.09-0.24-0.16-0.38
		l-0.12-0.27L59.53,48.6z M65.48,34.93c-0.54,0-1.04,0.21-1.43,0.59l-0.13,0.13l2.97,2.97l0.13-0.12c0.38-0.35,0.6-0.83,0.61-1.36
		c0.02-0.57-0.2-1.12-0.62-1.55C66.6,35.17,66.06,34.93,65.48,34.93z M14.03,18.91c-0.97,0.36-1.22,0.88-0.87,1.85l3.44,9.55
		c0.04,0.11,0.08,0.21,0.14,0.35l0.12,0.29l0.35-0.07V17.73L14.03,18.91z M44.48,7.81c-0.17,0-0.35,0.03-0.54,0.1
		c-0.49,0.17-0.98,0.35-1.46,0.54L39.1,9.7l0.08,0.3l0.16,0.08h6.71l-0.22-0.63c-0.09-0.27-0.17-0.52-0.27-0.76
		C45.29,7.96,44.82,7.81,44.48,7.81z"/>
	<path class="st0" d="M22.13,36.87c-0.74,0-1.01-0.26-1.01-0.98c0-3.1,0-6.2,0-9.3c0-0.72,0.26-0.98,1.01-0.98h9.24
		c0.75,0,1.01,0.26,1.01,1.04v9.19c0,0.77-0.26,1.04-1.01,1.04l-4.62,0L22.13,36.87z M22.75,35.25h8.02v-8.03h-8.02V35.25z"/>
	<path class="st0" d="M35.71,48.49c-0.46,0-0.79-0.14-0.93-0.39c-0.14-0.25-0.09-0.6,0.14-0.98c1.85-3.1,3.71-6.19,5.57-9.29
		c0.22-0.37,0.51-0.57,0.8-0.57c0.29,0,0.57,0.2,0.79,0.56c1.87,3.11,3.74,6.22,5.6,9.34c0.22,0.36,0.26,0.7,0.12,0.94
		c-0.14,0.25-0.48,0.4-0.92,0.4l-2.27,0L35.71,48.49z M36.89,46.88h8.8l-4.4-7.33L36.89,46.88z"/>
	<path class="st0" d="M48.05,25.24c-1.24,0-2.42-0.5-3.3-1.39c-0.88-0.89-1.36-2.06-1.35-3.3c0.02-2.55,2.11-4.62,4.66-4.63
		c2.59,0,4.68,2.09,4.68,4.66c0,1.24-0.49,2.41-1.37,3.29c-0.89,0.88-2.06,1.37-3.3,1.37H48.05z M48.08,17.49
		c-1.7,0-3.08,1.38-3.08,3.08c0,0.83,0.32,1.61,0.89,2.19c0.58,0.58,1.35,0.9,2.18,0.9c1.74-0.01,3.08-1.36,3.08-3.07
		c0-1.69-1.36-3.08-3.04-3.09H48.08z"/>
	<path class="st0" d="M46.1,39.77c-0.46,0-0.74-0.33-0.74-0.88c-0.01-1.23-0.01-2.47,0-3.7c0-0.53,0.29-0.85,0.77-0.85
		c0.66,0.01,0.77,0.56,0.78,0.88c0,0.19,0,0.38,0,0.6l0,0.75l0.42-0.37c0.06-0.05,0.1-0.08,0.14-0.14c2.04-2.92,2.91-5.63,2.73-8.52
		c-0.02-0.31,0.05-0.57,0.2-0.74c0.12-0.14,0.3-0.22,0.52-0.23c0,0,0,0,0,0c0.71,0,0.83,0.57,0.84,0.91
		c0.11,3.32-0.81,6.4-2.74,9.14l-0.71,0.98l0.88-0.22c0.22-0.06,0.41-0.11,0.59-0.14c0.07-0.01,0.13-0.02,0.2-0.02
		c0.37,0,0.68,0.22,0.77,0.55c0.06,0.22,0.04,0.44-0.06,0.61c-0.1,0.18-0.27,0.3-0.5,0.36c-1.47,0.4-2.7,0.71-3.85,0.97
		C46.27,39.76,46.18,39.77,46.1,39.77z"/>
	<path class="st0" d="M26.78,50.44c-0.21,0-0.44-0.1-0.63-0.29c-0.61-0.59-1.2-1.19-1.8-1.79c-0.38-0.38-0.42-0.79-0.12-1.14
		c0.15-0.18,0.34-0.27,0.55-0.27c0.2,0,0.42,0.08,0.63,0.24l0.56,0.41c0,0,0-2.28,0-2.83c0.01-1.31,0.5-2.45,1.47-3.36
		c0.86-0.82,1.91-1.24,3.13-1.27c0.54-0.01,1.07-0.01,1.61-0.01c0.55,0,2.15,0.01,2.15,0.01c0.33,0,0.59,0.09,0.75,0.26
		c0.13,0.14,0.2,0.32,0.19,0.55c-0.01,0.49-0.36,0.77-0.94,0.77l-3.59,0c-1.9,0.01-3.19,1.3-3.21,3.21c0,0.5,0,1,0,1.54l0,1.14
		l0.49-0.38c0.09-0.07,0.15-0.13,0.23-0.17c0.16-0.09,0.31-0.13,0.46-0.13c0.19,0,0.37,0.08,0.54,0.25c0.29,0.28,0.31,0.72,0.05,1
		c-0.66,0.7-1.35,1.4-2.06,2.06C27.1,50.37,26.95,50.44,26.78,50.44z"/>
	<path class="st0" d="M26.7,24.26c-0.26,0-0.47-0.13-0.61-0.39c-0.13-0.23-0.22-0.58,0.09-0.91c0.21-0.23,0.48-0.42,0.74-0.61
		c2.61-1.93,5.56-2.91,8.76-2.91c0.22,0,0.44,0,0.66,0.01l0.52,0c0,0-0.14-0.53-0.15-0.6c-0.08-0.37,0.04-0.65,0.36-0.85
		c0.14-0.09,0.28-0.13,0.42-0.13c0.18,0,0.34,0.07,0.49,0.21c0.69,0.65,1.35,1.31,1.95,1.95c0.32,0.34,0.31,0.74-0.02,1.09
		c-0.62,0.65-1.26,1.29-1.91,1.91c-0.18,0.17-0.39,0.27-0.6,0.27c-0.2,0-0.38-0.08-0.53-0.23c-0.32-0.32-0.31-0.76,0.02-1.13
		c0.09-0.1,0.18-0.19,0.29-0.31l0.42-0.44l-0.54-0.1c-0.13-0.03-0.23-0.05-0.34-0.06c-0.33-0.02-0.66-0.03-0.99-0.03
		c-3.06,0-5.84,0.98-8.26,2.9c-0.17,0.14-0.36,0.27-0.54,0.32C26.84,24.25,26.77,24.26,26.7,24.26z"/>
	<path class="st0" d="M24.98,58.18c-0.32,0-0.59-0.1-0.76-0.27c-0.14-0.14-0.2-0.33-0.19-0.54c0.02-0.48,0.39-0.76,1.02-0.76h13.11
		c0.45,0,0.98,0.13,1,0.76c0.01,0.23-0.06,0.42-0.19,0.56c-0.16,0.17-0.42,0.25-0.76,0.25c-2.17,0-4.34,0.01-6.52,0.01
		C29.45,58.19,27.22,58.19,24.98,58.18z"/>
	<path class="st0" d="M22.35,54.31c-0.21,0-0.43,0-0.62-0.04c-0.39-0.09-0.59-0.33-0.6-0.73c-0.01-0.4,0.19-0.66,0.62-0.78
		c0.06-0.02,0.13-0.02,0.19-0.02l9.49,0c0.36,0,0.66,0.13,0.83,0.36c0.13,0.18,0.17,0.4,0.1,0.62c-0.13,0.42-0.42,0.6-0.98,0.6
		L22.35,54.31z"/>
	<path class="st0" d="M37.88,54.32c-0.77,0-1.54,0-2.31-0.01c-0.29,0-0.53-0.09-0.69-0.26c-0.14-0.14-0.2-0.34-0.19-0.56
		c0.02-0.47,0.35-0.74,0.91-0.75l3.68,0l0.91,0c0.54,0,0.9,0.29,0.92,0.75c0.01,0.21-0.06,0.4-0.19,0.55
		c-0.16,0.17-0.41,0.27-0.7,0.27C39.44,54.31,38.66,54.32,37.88,54.32z"/>
</g>
</svg>
