<?xml version="1.0" encoding="utf-8"?>
<!-- Generator: Adobe Illustrator 24.0.2, SVG Export Plug-In . SVG Version: 6.00 Build 0)  -->
<svg version="1.1" id="Capa_1" xmlns="http://www.w3.org/2000/svg" xmlns:xlink="http://www.w3.org/1999/xlink" x="0px" y="0px"
	 viewBox="0 0 80.65 74.1" style="enable-background:new 0 0 80.65 74.1;" xml:space="preserve">
<style type="text/css">
	.st0{fill:#FFFFFF;}
	.st1{fill:#EFC100;}
	.st2{fill:#1D1D1B;}
	.st3{opacity:0.6;fill:#1D1D1B;}
	.st4{fill:url(#SVGID_19_);}
	.st5{opacity:0.5;}
	.st6{fill:url(#SVGID_28_);}
	.st7{fill:url(#SVGID_29_);}
	.st8{fill:#7FFF00;}
	.st9{fill:#B7B7B7;}
	.st10{fill:#D8D8D8;}
</style>
<g>
	<path class="st10" d="M33.24,39.81c0,2.2-0.05,4.4,0.02,6.59c0.03,1.03-0.2,1.43-1.35,1.42c-6.43-0.06-12.87-0.04-19.3-0.01
		c-0.92,0-1.25-0.21-1.24-1.18c0.04-6.33,0.04-12.65,0-18.98c0-0.9,0.21-1.25,1.19-1.24c6.55,0.03,13.09,0.03,19.64-0.01
		c0.83-0.01,1.15,0.37,1.48,1.01c1.19,2.34,2.44,4.66,3.95,6.97c0-2.2,0.06-4.41-0.03-6.6c-0.05-1.11,0.32-1.38,1.39-1.36
		c3.72,0.07,7.44,0.12,11.15,0c1.71-0.05,2.97,0.02,2.38,2.49c3.37-2.48,6.78-3.39,10.57-2.36c5.1,1.38,8.35,5.81,8.18,11.05
		c-0.16,4.88-3.94,9.18-8.91,10.17c-5.08,1.01-10.4-1.53-12.38-6.17c-0.63-1.48-1.45-1.72-2.83-1.68c-2.91,0.08-2.92,0.02-2.92,2.95
		c0,1.21-0.06,2.42,0.02,3.63c0.06,0.95-0.13,1.4-1.24,1.33c-1.71-0.11-3.78,0.52-5.06-0.23c-1.26-0.74-1.75-2.8-2.55-4.28
		c-0.64-1.19-1.26-2.39-1.88-3.59C33.43,39.74,33.34,39.77,33.24,39.81z M60.16,32.59c-2.57-0.02-4.59,1.88-4.63,4.36
		c-0.04,2.55,2.01,4.6,4.6,4.59c2.52-0.01,4.54-2,4.55-4.48C64.7,34.57,62.73,32.62,60.16,32.59z M26.62,37.38
		c0-1.53-0.05-2.79,0.02-4.05c0.04-0.86-0.23-1.15-1.11-1.13c-2.16,0.05-4.33,0.04-6.49,0.01c-0.75-0.01-1.1,0.14-1.08,0.99
		c0.02,0.74,0.18,1.14,1.02,1.06c0.6-0.06,1.22-0.04,1.83,0c1.47,0.1,3.48-0.66,4.26,0.32c0.73,0.93,0.16,2.84,0.26,4.31
		c0.06,0.93-0.32,1.09-1.14,1.06c-1.66-0.06-3.33,0-4.99-0.02c-0.73-0.01-1.24-0.01-1.24,1c0,0.95,0.4,1.09,1.19,1.05
		c0.88-0.05,1.77,0,2.66-0.01c1.54-0.03,3.61,0.51,4.49-0.26C27.31,40.79,26.48,38.7,26.62,37.38z M49.85,32.22
		c-1.54,0-3.07,0.04-4.6-0.01c-0.79-0.03-1.04,0.23-1.03,1.02c0.01,0.75,0.2,1.11,1.02,1.04c0.76-0.06,1.55-0.11,2.3,0.01
		C49.11,34.51,49.74,33.77,49.85,32.22z"/>
</g>
</svg>
