<?xml version="1.0" encoding="utf-8"?>
<!-- Generator: Adobe Illustrator 24.0.2, SVG Export Plug-In . SVG Version: 6.00 Build 0)  -->
<svg version="1.1" id="Capa_1" xmlns="http://www.w3.org/2000/svg" xmlns:xlink="http://www.w3.org/1999/xlink" x="0px" y="0px"
	 viewBox="0 0 80.65 74.1" style="enable-background:new 0 0 80.65 74.1;" xml:space="preserve">
<style type="text/css">
	.st0{fill:#FFFFFF;}
	.st1{fill:#EFC100;}
	.st2{fill:#1D1D1B;}
	.st3{opacity:0.6;fill:#1D1D1B;}
	.st4{fill:url(#SVGID_19_);}
	.st5{opacity:0.5;}
	.st6{fill:url(#SVGID_28_);}
	.st7{fill:url(#SVGID_29_);}
	.st8{fill:#7FFF00;}
	.st9{fill:#B7B7B7;}
</style>
<g>
	<path class="st9" d="M9.28,67.11v-1.27h3.2c0,0,0-40.05,0-55.51c0-0.43,0-0.86,0.09-1.23c0.3-1.22,1.32-2.06,2.55-2.07
		c1.25-0.02,2.51-0.02,3.76-0.02c1.03,0,4.75,0.01,4.75,0.01c0.73,0,1.37,0.3,2.01,0.95l2.66,2.67c1.4,1.4,2.81,2.81,4.2,4.22
		c0.48,0.49,1.02,0.72,1.68,0.72c0.62-0.02,1.17-0.02,1.72-0.02c0.59,0,1.18,0.01,1.77,0.02c1.57,0.03,2.75,1.21,2.76,2.76
		c0.01,5.9,0.01,11.8,0.01,17.7l0,5.4h-1.33v-22.5c0-1.61-0.42-2.02-2.03-2.02H13.84v48.86h14.1V47.77c0-2.28,1.06-3.34,3.35-3.34
		l4.33,0c1.01,0,2.03,0,3.04-0.01c0.96,0,1.73,0.32,2.39,0.99c0.79,0.8,1.58,1.59,2.38,2.38c0.96,0.96,1.92,1.91,2.88,2.88
		c0.48,0.48,1,0.71,1.66,0.71c1-0.01,1.98-0.01,2.95-0.01c0.97,0,1.95,0,2.92,0.01c2.04,0.01,3.13,1.1,3.13,3.16l0,11.23h10.41
		V47.94H54.1v-1.35h13.29v-6.13H54.12v-1.35h13.27v-6.13H54.12v-1.35h13.29c0,0,0-1.19,0.01-1.58c0.01-0.95,0.02-1.85-0.03-2.77
		c-0.04-0.77-0.62-1.29-1.49-1.31c-0.25-0.01-0.51-0.01-0.76-0.01l-1.03,0H51.53c-1.5,0-1.98,0.48-1.98,1.96l0,19.97h-1.33l0-20.09
		c0-2.07,1.1-3.17,3.18-3.18h1.6v-3.08h1.33v3.04h2.94V18.3h1.34v6.31l7.01,0c2.01,0.01,3.16,1.16,3.16,3.16l0,38.02h2.61v1.31H9.28
		z M47.23,56.98c-1.43,0.03-2.48,1.16-2.48,2.71c-0.01,1.64,0,3.28,0,4.92l0,0.22c0,0.14,0.01,0.27,0.03,0.41l0.04,0.54h4.98l0-2.15
		c0-1.33,0-2.64,0-3.94c-0.01-1.57-1.07-2.7-2.51-2.7h0L47.23,56.98z M47.28,55.65c2.14,0,3.83,1.74,3.85,3.95
		c0.01,1.16,0.01,2.33,0.01,3.49l0,2.68h4.5l0-11.28c0-1.28-0.51-1.78-1.82-1.79l-3.41-0.01c-0.83,0-1.67,0-2.5,0.01c0,0,0,0,0,0
		c-1.01,0-1.79-0.33-2.49-1.05c-0.95-0.97-1.92-1.93-2.88-2.89c-0.78-0.77-1.56-1.55-2.33-2.33c-0.45-0.46-0.97-0.67-1.61-0.67
		c-1.16,0.01-2.29,0.01-3.42,0.01l-3.91,0c-1.5,0-1.98,0.48-1.98,1.96v18H43.4l0-2.19c0-1.32,0-2.61,0-3.91
		c0.01-2.26,1.67-3.98,3.85-3.99H47.28z M14.93,12.67c-0.16,0-0.32,0.01-0.49,0.02l-0.59,0.03v2.78h17.58l-1.3-1.22
		c-0.4-0.37-0.76-0.7-1.09-1.06c-0.37-0.39-0.78-0.56-1.34-0.56c-2.64,0.01-5.26,0.01-7.89,0.01l-2.09,0L14.93,12.67z M19.03,8.32
		c-1.24,0-2.49,0-3.73,0.01c-0.78,0-1.33,0.46-1.43,1.18c-0.05,0.33-0.04,0.66-0.03,0.98c0,0.13,0.01,0.27,0.01,0.4v0.4h13.15
		l-1.19-1.23c-0.47-0.49-0.92-0.95-1.39-1.4c-0.25-0.24-0.65-0.33-0.92-0.33C22.01,8.32,20.52,8.32,19.03,8.32z"/>
	<path class="st9" d="M20.81,28.11c-1.97-0.01-3.57-1.61-3.56-3.57c0-1.96,1.6-3.56,3.57-3.56c0.98,0,1.88,0.38,2.56,1.06
		c0.67,0.68,1.04,1.58,1.03,2.53C24.39,26.52,22.78,28.11,20.81,28.11L20.81,28.11z M20.81,22.31c-1.19,0.01-2.21,1.02-2.22,2.21
		c-0.01,0.59,0.22,1.15,0.64,1.58c0.43,0.43,1,0.67,1.6,0.67c1.22-0.01,2.22-1,2.23-2.2c0.01-0.6-0.23-1.16-0.65-1.59
		c-0.43-0.43-0.99-0.67-1.58-0.67h0H20.81z"/>
	<path class="st9" d="M32.07,28.11c-0.96,0-1.86-0.37-2.53-1.05c-0.67-0.68-1.04-1.59-1.03-2.56c0.02-1.97,1.58-3.52,3.56-3.52
		c2.01,0.02,3.56,1.59,3.56,3.58C35.62,26.52,34.03,28.11,32.07,28.11z M32.06,22.31c-1.2,0-2.19,0.98-2.22,2.19
		c-0.02,1.24,0.92,2.24,2.16,2.27c0,0,0,0,0,0c1.26,0,2.24-0.94,2.29-2.14c0.02-0.61-0.19-1.18-0.61-1.62
		c-0.42-0.44-0.98-0.69-1.58-0.7L32.06,22.31z"/>
	<path class="st9" d="M20.81,51.62c-1.93-0.01-3.57-1.65-3.57-3.58c0-1.93,1.64-3.57,3.57-3.58c0.96,0,1.86,0.38,2.54,1.07
		c0.68,0.69,1.06,1.59,1.05,2.54c-0.02,1.96-1.62,3.55-3.58,3.55H20.81z M20.79,45.8c-1.19,0.02-2.2,1.05-2.2,2.24
		c0,0.59,0.23,1.15,0.66,1.58c0.43,0.42,0.99,0.66,1.58,0.66c0.63-0.01,1.19-0.26,1.61-0.69c0.42-0.44,0.64-1.01,0.62-1.61
		c-0.04-1.2-1.04-2.17-2.23-2.17h0L20.79,45.8z"/>
	<path class="st9" d="M32.07,39.86c-0.96,0-1.86-0.37-2.52-1.04c-0.67-0.68-1.04-1.59-1.03-2.57c0.01-1.94,1.61-3.53,3.57-3.53
		c1.97,0.01,3.56,1.62,3.55,3.58C35.62,38.29,34.06,39.85,32.07,39.86L32.07,39.86z M32.07,34.07c-1.22,0-2.19,0.95-2.22,2.16
		c-0.02,0.61,0.21,1.18,0.63,1.62c0.41,0.43,0.97,0.67,1.56,0.68c0,0,0,0,0,0c0.61,0,1.17-0.23,1.59-0.66c0.43-0.43,0.67-1,0.66-1.6
		c0-1.23-0.97-2.2-2.2-2.21H32.07z"/>
	<path class="st9" d="M20.75,39.85c-0.96-0.02-1.86-0.42-2.53-1.13c-0.65-0.69-1-1.57-0.98-2.5c0.05-1.97,1.64-3.51,3.61-3.51
		c1.02,0.02,1.9,0.42,2.56,1.11c0.67,0.7,1.02,1.6,0.99,2.55c-0.05,1.92-1.65,3.48-3.57,3.48L20.75,39.85z M20.82,34.07
		c-1.21,0-2.21,0.99-2.23,2.19c-0.01,0.58,0.23,1.16,0.66,1.59c0.43,0.43,1,0.68,1.58,0.68c1.2-0.01,2.22-1.02,2.24-2.22
		c0.01-0.6-0.22-1.16-0.64-1.59C22,34.3,21.43,34.07,20.82,34.07L20.82,34.07z"/>
	<path class="st9" d="M36.08,59.15c-0.9,0-1.74-0.35-2.37-0.98c-0.63-0.63-0.98-1.46-0.98-2.35c0-1.82,1.49-3.32,3.32-3.34
		c1.84,0,3.37,1.53,3.37,3.34c0,1.83-1.49,3.32-3.31,3.33H36.08z M36.06,53.81c-1.08,0-1.97,0.89-1.99,1.97
		c-0.02,1.1,0.83,1.98,1.92,2.02c0,0,0,0,0,0c1.17,0,2.04-0.86,2.06-1.96c0.01-0.54-0.2-1.05-0.58-1.44
		C37.1,54.02,36.6,53.81,36.06,53.81L36.06,53.81z"/>
</g>
</svg>
