<?xml version="1.0" encoding="utf-8"?>
<!-- Generator: Adobe Illustrator 24.0.2, SVG Export Plug-In . SVG Version: 6.00 Build 0)  -->
<svg version="1.1" id="Capa_1" xmlns="http://www.w3.org/2000/svg" xmlns:xlink="http://www.w3.org/1999/xlink" x="0px" y="0px"
	 viewBox="0 0 17.11 16.67" style="enable-background:new 0 0 17.11 16.67;" xml:space="preserve">
<style type="text/css">
	.st0{fill:#FFFFFF;}
</style>
<g>
	<path class="st0" d="M8.54,14.09c-3.18-0.01-5.76-2.61-5.74-5.78c0.02-3.17,2.61-5.74,5.78-5.73c3.16,0.02,5.74,2.6,5.73,5.77
		C14.3,11.52,11.71,14.1,8.54,14.09z M3.45,8.34c0,2.83,2.28,5.1,5.1,5.11c2.83,0,5.12-2.28,5.12-5.11c0-2.83-2.28-5.11-5.11-5.11
		C5.72,3.22,3.44,5.5,3.45,8.34z"/>
	<path class="st0" d="M6.8,11.37c0.08,0,0.13,0,0.19,0c0.77,0,1.54,0,2.31,0c0.2,0,0.33,0.08,0.37,0.23
		c0.06,0.21-0.09,0.41-0.33,0.41c-0.27,0-0.54,0-0.81,0c-0.66,0-1.31,0-1.97,0c-0.28,0-0.4-0.12-0.4-0.4
		c0.01-0.42-0.04-0.84,0.08-1.25C6.53,9.33,7.56,8.6,8.66,8.65c1.12,0.05,2.07,0.85,2.25,1.91c0.06,0.38,0.04,0.78,0.04,1.17
		c0,0.16-0.16,0.28-0.32,0.28c-0.16,0-0.3-0.13-0.3-0.3c-0.01-0.22,0-0.45,0-0.67c0-0.99-0.76-1.75-1.75-1.75
		c-1,0-1.76,0.76-1.76,1.75C6.8,11.15,6.8,11.25,6.8,11.37z"/>
	<path class="st0" d="M8.55,8.17C7.58,8.16,6.78,7.36,6.8,6.4c0.01-0.97,0.81-1.75,1.78-1.75c0.96,0.01,1.75,0.81,1.74,1.77
		C10.31,7.39,9.51,8.18,8.55,8.17z M7.44,6.41c0,0.62,0.49,1.12,1.1,1.12c0.63,0,1.13-0.49,1.13-1.11c0-0.63-0.49-1.12-1.12-1.12
		C7.93,5.3,7.44,5.79,7.44,6.41z"/>
</g>
</svg>
