<?xml version="1.0" encoding="utf-8"?>
<!-- Generator: Adobe Illustrator 24.0.2, SVG Export Plug-In . SVG Version: 6.00 Build 0)  -->
<svg version="1.1" id="Capa_1" xmlns="http://www.w3.org/2000/svg" xmlns:xlink="http://www.w3.org/1999/xlink" x="0px" y="0px"
	 viewBox="0 0 80.65 74.1" style="enable-background:new 0 0 80.65 74.1;" xml:space="preserve">
<style type="text/css">
	.st0{fill:#FFFFFF;}
	.st1{fill:#EFC100;}
	.st2{fill:#1D1D1B;}
	.st3{opacity:0.6;fill:#1D1D1B;}
	.st4{fill:url(#SVGID_19_);}
	.st5{opacity:0.5;}
	.st6{fill:url(#SVGID_28_);}
	.st7{fill:url(#SVGID_29_);}
	.st8{fill:#7FFF00;}
	.st9{fill:#B7B7B7;}
	.st10{fill:#D8D8D8;}
</style>
<g>
	<path class="st0" d="M50.29,54.71c3.76,0.36,6.97,3.44,7.28,8.17c0.68,0,1.36,0,2.04,0c1.44,0,2.89,0.02,4.33,0
		c2-0.03,3.27-1.3,3.27-3.29c0-10.89,0-21.79,0-32.68c0-0.17,0-0.34,0-0.59c-0.3,0-0.55,0-0.8,0c-5.06,0-10.12,0-15.18,0
		c-0.24,0-0.54,0.07-0.69-0.05c-0.25-0.2-0.53-0.53-0.54-0.81c0-0.21,0.38-0.47,0.63-0.64c0.14-0.09,0.38-0.02,0.57-0.02
		c5.06,0,10.12,0,15.18,0c0.25,0,0.51,0,0.79,0c0-1.48,0.1-2.9-0.03-4.3c-0.14-1.54-1.49-2.55-3.15-2.55c-4.99-0.01-9.99,0-14.98,0
		c-0.95,0-1.31-0.22-1.3-0.78c0.01-0.55,0.36-0.75,1.32-0.75c4.89,0,9.77,0,14.66,0c3.12,0,5.05,1.92,5.05,5.02
		c0,12.64,0,25.27,0,37.91c0,3.12-1.9,5.04-5.02,5.04c-15.61,0-31.22,0-46.83,0c-3.09,0-5-1.91-5-4.98c0-12.66,0-25.32,0-37.98
		c0-3.11,1.91-5.01,5.04-5.01c4.93,0,9.86,0,14.79,0c0.19,0,0.44-0.06,0.57,0.03c0.25,0.19,0.58,0.47,0.58,0.71
		c0,0.25-0.31,0.55-0.55,0.74c-0.14,0.11-0.42,0.05-0.63,0.05c-4.93,0-9.86,0-14.79,0c-2.3,0-3.49,1.19-3.49,3.5
		c0,1.09,0,2.19,0,3.35c0.32,0,0.57,0,0.82,0c5.06,0,10.12,0,15.18,0c0.19,0,0.44-0.07,0.57,0.02c0.25,0.17,0.56,0.4,0.64,0.67
		c0.12,0.39-0.14,0.71-0.56,0.79c-0.23,0.05-0.47,0.03-0.71,0.03c-5.04,0-10.08,0-15.11,0c-0.25,0-0.5,0-0.83,0
		c0,0.33,0,0.58,0,0.83c0,10.7,0.03,21.4-0.02,32.1c-0.01,2.4,1.52,3.72,3.67,3.65c2-0.07,4-0.01,6.01-0.01
		c0.49-4.47,2.69-7.38,7.31-8.22c0.05-0.22,0.11-0.51,0.19-0.79c0.73-2.57,2.44-4.09,5.02-4.64c0.43-0.09,0.61-0.26,0.72-0.66
		c0.38-1.5,0.8-2.99,1.2-4.49c0.04-0.17,0.08-0.34,0.14-0.5c0.15-0.41,0.45-0.66,0.9-0.54c0.46,0.12,0.68,0.46,0.56,0.94
		c-0.52,2.02-1.04,4.04-1.62,6.04c-0.07,0.26-0.5,0.55-0.79,0.58c-2.84,0.3-4.5,1.88-4.82,4.72c-0.07,0.65-0.38,0.87-1,0.9
		c-3.24,0.18-5.76,2.59-6.14,5.84c-0.03,0.23-0.02,0.47-0.04,0.75c10.44,0,20.85,0,31.25,0c0.28-2.92-2.35-6.12-5.33-6.52
		c-1.57-0.21-1.57-0.21-1.9-1.78c-0.45-2.15-2.29-3.76-4.5-3.88c-0.65-0.03-0.98-0.29-1.13-0.9c-0.47-1.85-0.96-3.7-1.46-5.55
		c-0.14-0.53-0.08-0.95,0.48-1.15c0.44-0.16,0.81,0.14,0.98,0.76c0.44,1.6,0.86,3.19,1.29,4.79c0.08,0.29,0.15,0.53,0.54,0.61
		c2.9,0.56,4.69,2.27,5.29,5.19C50.21,54.51,50.26,54.61,50.29,54.71z"/>
	<path class="st0" d="M47.96,29.05c0,0.8-0.03,1.59,0.02,2.39c0.02,0.28,0.17,0.6,0.35,0.81c0.51,0.58,1.09,1.1,1.61,1.68
		c2.64,2.96,3.16,6.26,1.46,9.85c-0.59,1.24-1.26,2.45-1.93,3.65c-0.43,0.77-1.1,0.75-1.52-0.04c-0.97-1.85-1.92-3.7-2.86-5.56
		c-0.17-0.35-0.37-0.5-0.78-0.49c-2.65,0.02-5.29,0.02-7.94,0c-0.44,0-0.64,0.15-0.83,0.52c-0.91,1.81-1.83,3.6-2.79,5.38
		c-0.16,0.3-0.53,0.66-0.81,0.67c-0.28,0.01-0.69-0.34-0.84-0.63c-0.85-1.66-1.76-3.31-2.41-5.05c-0.88-2.36-0.53-4.69,0.89-6.77
		c0.72-1.06,1.59-2.03,2.5-2.94c0.48-0.48,0.61-0.92,0.58-1.57c-0.24-5.19,0.51-10.21,2.74-14.95c1.01-2.16,2.35-4.1,4.07-5.76
		c0.71-0.69,0.97-0.7,1.66-0.02c2.95,2.87,4.7,6.42,5.77,10.35C47.68,23.34,48.01,26.17,47.96,29.05z M41.1,39.81
		c1,0,1.92-0.04,2.84,0.01c0.59,0.04,0.86-0.15,1.05-0.73c1.77-5.6,2.02-11.27,0.73-17c-0.22-0.99-0.57-1.95-0.86-2.95
		c-3.07,1.37-6.03,1.35-8.97,0.04c-0.06,0.09-0.11,0.14-0.13,0.2c-0.07,0.18-0.13,0.36-0.19,0.55c-1.35,4.11-1.67,8.33-1.25,12.62
		c0.22,2.3,0.67,4.55,1.45,6.73c0.07,0.2,0.25,0.5,0.38,0.51c1.13,0.04,2.26,0.02,3.43,0.02c0-1.12,0-2.15,0-3.18
		c0-0.69,0.28-1.06,0.79-1.02c0.61,0.05,0.75,0.48,0.74,1.01C41.09,37.64,41.1,38.67,41.1,39.81z M32.82,33.93
		c-3.9,3.61-3.84,6.84-0.89,11.63c0.55-1.06,1.03-2.16,1.66-3.15c0.77-1.2,1.09-2.38,0.33-3.69c-0.03-0.05-0.03-0.12-0.05-0.19
		C33.52,37.01,33.17,35.49,32.82,33.93z M44.22,17.64c-0.99-2.21-2.16-4.32-3.89-6.14c-1.74,1.82-2.91,3.92-3.89,6.14
		C38.4,18.95,42.26,18.94,44.22,17.64z M47.9,34.01c-0.55,2.05-1.1,4.1-1.64,6.16c-0.05,0.17-0.1,0.4-0.03,0.54
		c0.82,1.63,1.67,3.24,2.56,4.97c0.41-0.86,0.81-1.6,1.12-2.37c0.3-0.73,0.58-1.49,0.76-2.25C51.28,38.5,50.03,35.45,47.9,34.01z"/>
	<path class="st0" d="M17.46,21.35c0-0.34-0.02-0.69,0.01-1.03c0.03-0.42,0.28-0.67,0.71-0.69c0.43-0.02,0.73,0.21,0.76,0.63
		C18.97,21,19,21.76,18.9,22.5c-0.03,0.23-0.49,0.56-0.76,0.56c-0.22,0.01-0.55-0.36-0.65-0.63C17.38,22.11,17.47,21.71,17.46,21.35
		C17.47,21.35,17.47,21.35,17.46,21.35z"/>
	<path class="st0" d="M22.88,21.42c0,0.3,0.02,0.6,0,0.9c-0.03,0.46-0.27,0.78-0.75,0.79c-0.48,0-0.75-0.3-0.76-0.77
		c-0.02-0.64-0.02-1.28,0-1.92c0.01-0.47,0.26-0.77,0.75-0.78c0.5-0.01,0.73,0.31,0.76,0.77C22.9,20.74,22.88,21.08,22.88,21.42z"/>
	<path class="st0" d="M44.49,28.63c-0.01,2.31-1.9,4.19-4.2,4.17c-2.27-0.02-4.12-1.89-4.13-4.17c-0.01-2.31,1.87-4.2,4.16-4.2
		C42.62,24.43,44.5,26.32,44.49,28.63z M40.3,31.27c1.49,0.01,2.67-1.15,2.67-2.64c0-1.46-1.14-2.64-2.59-2.66
		c-1.48-0.02-2.69,1.14-2.72,2.61C37.63,30.04,38.83,31.26,40.3,31.27z"/>
</g>
</svg>
