<?xml version="1.0" encoding="utf-8"?>
<!-- Generator: Adobe Illustrator 24.0.2, SVG Export Plug-In . SVG Version: 6.00 Build 0)  -->
<svg version="1.1" id="Capa_1" xmlns="http://www.w3.org/2000/svg" xmlns:xlink="http://www.w3.org/1999/xlink" x="0px" y="0px"
	 viewBox="0 0 80.65 74.1" style="enable-background:new 0 0 80.65 74.1;" xml:space="preserve">
<style type="text/css">
	.st0{fill:#FFFFFF;}
	.st1{fill:#EFC100;}
	.st2{fill:#1D1D1B;}
	.st3{opacity:0.6;fill:#1D1D1B;}
	.st4{fill:url(#SVGID_19_);}
	.st5{opacity:0.5;}
	.st6{fill:url(#SVGID_28_);}
	.st7{fill:url(#SVGID_29_);}
	.st8{fill:#7FFF00;}
	.st9{fill:#B7B7B7;}
	.st10{fill:#D8D8D8;}
</style>
<g>
	<path class="st0" d="M40.3,52.39c-1.03,0-2.05,0.01-3.08,0c-0.86-0.01-1.24-0.4-1.25-1.26c0-1.41,0.02-2.82-0.02-4.23
		c-0.01-0.22-0.17-0.53-0.36-0.65c-3.4-2.18-4.96-5.96-3.92-9.58c1.07-3.74,4.61-6.39,8.58-6.41c4.55-0.02,8.31,3.03,8.94,7.46
		c0.51,3.6-1,6.39-3.97,8.4c-0.41,0.28-0.55,0.55-0.54,1.01c0.03,1.35,0.01,2.7,0.01,4.05c0,0.78-0.4,1.19-1.19,1.2
		C42.44,52.41,41.37,52.39,40.3,52.39z M42.53,45.87c0.2-0.76,0.26-0.83,0.92-1.16c2.73-1.38,4.19-4.26,3.59-7.05
		c-0.8-3.73-4.61-6.02-8.44-5.07c-2.64,0.65-4.76,2.97-5.04,5.5c-0.3,2.77,1.05,5.32,3.52,6.53c0.56,0.27,1.01,0.57,1.05,1.26
		C39.61,45.87,41.06,45.87,42.53,45.87z M38.12,50.22c1.51,0,2.96,0,4.44,0c0-0.74,0-1.43,0-2.15c-1.49,0-2.95,0-4.44,0
		C38.12,48.78,38.12,49.48,38.12,50.22z"/>
	<path class="st0" d="M53.35,23.48c-0.52,0.5-1,0.95-1.52,1.44c-6.03-5.9-12.74-10.9-20.9-14c0.2,0.94,0.37,1.73,0.54,2.53
		c0.22,1-0.01,1.57-0.69,1.72c-0.54,0.11-1.2-0.12-1.38-1.22c-0.23-1.39-0.59-2.75-0.88-4.13c-0.19-0.92,0.1-1.35,1.03-1.55
		c1.59-0.34,3.19-0.69,4.78-1.03c0.78-0.17,1.32,0.11,1.49,0.74c0.16,0.62-0.23,1.13-1,1.31c-0.42,0.1-0.85,0.2-1.21,0.28
		c2.58,1.36,5.17,2.73,7.75,4.09c-0.12-0.24-0.27-0.51-0.45-0.86c0.9-0.49,1.8-0.97,2.74-1.47c0.32,0.64,0.62,1.23,0.94,1.88
		c-0.73,0.39-1.44,0.78-2.24,1.22C46.35,17.1,49.97,20.09,53.35,23.48z"/>
	<path class="st0" d="M66.09,26.31c-0.99,0.32-1.79,0.59-2.59,0.84c-0.77,0.25-1.33,0.03-1.54-0.59c-0.22-0.63,0.09-1.14,0.86-1.4
		c1.49-0.5,2.97-1,4.46-1.49c0.85-0.28,1.36-0.01,1.6,0.85c0.47,1.69,0.93,3.37,1.38,5.06c0.2,0.76-0.07,1.33-0.7,1.5
		c-0.59,0.16-1.11-0.19-1.32-0.91c-0.17-0.59-0.33-1.18-0.56-1.79c-1.49,4-3.51,7.71-5.87,11.24c-2.37,3.54-5.08,6.8-8.08,9.89
		c-0.47-0.52-0.92-1.02-1.41-1.56C58.22,41.73,63.24,34.82,66.09,26.31z"/>
	<path class="st0" d="M48.56,64.37c-8.04-3.11-14.75-7.95-20.82-13.8c0.09-0.11,0.15-0.19,0.22-0.26c0.4-0.4,0.8-0.79,1.26-1.23
		c6.27,5.95,13.16,10.97,21.63,13.82c-0.29-1.03-0.55-1.91-0.79-2.79c-0.2-0.75,0.08-1.31,0.73-1.48c0.54-0.14,1.08,0.16,1.26,0.76
		c0.46,1.54,0.9,3.09,1.33,4.64c0.19,0.72-0.11,1.21-0.84,1.42c-1.64,0.48-3.29,0.95-4.93,1.41c-0.68,0.19-1.25-0.08-1.43-0.65
		c-0.19-0.61,0.13-1.15,0.83-1.37C47.46,64.69,47.94,64.55,48.56,64.37z"/>
	<path class="st0" d="M26.64,23.88c0.51,0.54,0.97,1.03,1.45,1.54c-4.65,4.7-8.71,9.88-11.76,15.8c-0.82,1.6-1.51,3.28-2.27,4.92
		c0.04,0.05,0.09,0.1,0.13,0.15c0.71-0.14,1.43-0.29,2.14-0.44c0.22-0.04,0.43-0.1,0.65-0.14c0.68-0.13,1.23,0.19,1.34,0.78
		c0.12,0.62-0.21,1.13-0.89,1.28c-1.39,0.31-2.79,0.6-4.19,0.89c-0.2,0.04-0.39,0.1-0.59,0.12c-0.62,0.06-1.07-0.24-1.2-0.85
		c-0.38-1.71-0.74-3.42-1.1-5.13c-0.15-0.72,0.2-1.27,0.82-1.39c0.59-0.11,1.08,0.26,1.24,0.95c0.1,0.43,0.2,0.85,0.34,1.47
		C16.07,36.16,20.86,29.72,26.64,23.88z"/>
	<path class="st0" d="M54.43,65.89c0.1-0.69,0.2-1.33,0.3-2.03c0.78,0.06,1.54,0.2,2.29,0.16c1.42-0.08,2.88-0.07,4.24-0.42
		c3.63-0.94,5.59-3.48,6.14-7.12c0.54-3.54-0.23-6.93-1.37-10.25c-0.32-0.93-0.7-1.84-1.08-2.83c0.62-0.27,1.23-0.54,1.96-0.87
		c0.52,1.44,1.07,2.82,1.51,4.22c0.95,3.04,1.47,6.13,1.18,9.34c-0.48,5.47-4.38,9.45-9.83,9.98
		C58.01,66.25,56.25,66.19,54.43,65.89z"/>
	<path class="st0" d="M46.54,12.27c-0.27-0.6-0.53-1.2-0.84-1.9c1.03-0.39,2-0.8,3-1.15c3.06-1.07,6.19-1.78,9.46-1.65
		c2.52,0.1,4.9,0.7,6.95,2.25c2.57,1.95,3.78,4.64,4.12,7.77c0.11,1.02,0.09,2.05,0.07,3.07c-0.01,0.7-0.13,1.39-0.21,2.16
		c-0.71-0.11-1.36-0.21-2.08-0.32c0.04-0.39,0.09-0.76,0.12-1.13c0.16-1.71,0.17-3.42-0.26-5.1c-0.93-3.65-3.48-5.92-7.21-6.45
		c-3.19-0.45-6.26,0.1-9.28,1.06C49.09,11.3,47.84,11.79,46.54,12.27z"/>
	<path class="st0" d="M23.6,64.49c0.06,0.62,0.11,1.28,0.17,1.95c-1.18,0-2.33,0.1-3.45-0.02c-3.2-0.32-5.92-1.61-7.85-4.29
		c-1.38-1.9-1.99-4.08-2.08-6.39c-0.06-1.54,0.08-3.08,0.14-4.73c0.83,0.14,1.49,0.24,2.17,0.35c-0.07,0.89-0.23,1.73-0.2,2.56
		c0.05,1.32,0.06,2.67,0.36,3.95c0.84,3.6,3.49,5.91,7.17,6.38C21.17,64.39,22.34,64.4,23.6,64.49z"/>
	<path class="st0" d="M12.88,20.43c-0.74,0.07-1.4,0.12-2.21,0.2c0.06-1.24,0.03-2.43,0.17-3.59c0.47-3.94,2.32-6.98,6.01-8.73
		c1.49-0.71,3.09-1.06,4.73-1.09c1.52-0.03,3.04,0.09,4.67,0.15C26.11,8.2,26,8.86,25.91,9.44c-1.59-0.03-3.11-0.15-4.63-0.06
		c-2.21,0.12-4.22,0.84-5.84,2.42c-1.66,1.62-2.36,3.66-2.55,5.91C12.82,18.58,12.88,19.47,12.88,20.43z"/>
	<path class="st0" d="M27.24,39.57c-0.62,0-1.25,0.01-1.87,0c-0.7-0.02-1.14-0.44-1.14-1.06c0-0.62,0.43-1.06,1.14-1.07
		c1.29-0.02,2.58-0.02,3.87,0c0.69,0.01,1.13,0.47,1.12,1.09c-0.01,0.59-0.45,1.01-1.11,1.04C28.57,39.59,27.91,39.57,27.24,39.57z"
		/>
	<path class="st0" d="M53.42,37.43c0.62,0,1.25-0.01,1.87,0c0.71,0.02,1.15,0.43,1.15,1.06c0,0.62-0.43,1.06-1.13,1.07
		c-1.29,0.02-2.58,0.02-3.87,0c-0.69-0.01-1.13-0.47-1.12-1.08c0.01-0.59,0.44-1.02,1.11-1.04C52.09,37.42,52.76,37.43,53.42,37.43z
		"/>
	<path class="st0" d="M41.4,26.03c0,0.58,0.01,1.17,0,1.75c-0.02,0.74-0.45,1.19-1.1,1.17c-0.61-0.02-1.02-0.47-1.03-1.17
		c-0.01-1.21-0.01-2.42,0-3.62c0.01-0.71,0.42-1.15,1.03-1.17c0.65-0.01,1.08,0.43,1.09,1.17C41.41,24.78,41.4,25.41,41.4,26.03z"/>
	<path class="st0" d="M33.7,31.09c-0.21,0.28-0.36,0.67-0.64,0.8c-0.3,0.13-0.84,0.17-1.05-0.02c-1.1-0.94-2.14-1.95-3.16-2.97
		c-0.38-0.38-0.29-0.98,0.09-1.36c0.37-0.37,0.97-0.45,1.37-0.09c1.03,0.93,2.03,1.89,3.02,2.87C33.5,30.48,33.55,30.77,33.7,31.09z
		"/>
	<path class="st0" d="M52.19,28.2c-0.23,0.37-0.34,0.69-0.56,0.9c-0.9,0.89-1.82,1.76-2.75,2.62c-0.51,0.48-1.13,0.45-1.55-0.01
		c-0.39-0.43-0.36-1.06,0.11-1.51c0.92-0.9,1.86-1.78,2.8-2.66c0.34-0.33,0.78-0.44,1.16-0.21C51.7,27.52,51.91,27.88,52.19,28.2z"
		/>
	<path class="st0" d="M17.3,33.7c-0.6,0.33-1.17,0.65-1.84,1.02c-0.61-1.2-1.19-2.37-1.82-3.61c0.68-0.31,1.29-0.58,1.93-0.87
		C16.15,31.4,16.71,32.52,17.3,33.7z"/>
	<path class="st0" d="M20.72,42.73c-0.81-1.12-1.56-2.16-2.36-3.26c0.6-0.41,1.15-0.79,1.74-1.2c0.76,1.04,1.5,2.07,2.29,3.16
		C21.85,41.85,21.32,42.26,20.72,42.73z"/>
	<path class="st0" d="M49,53.98c-0.48-0.56-0.92-1.07-1.38-1.6c0.97-0.89,1.9-1.74,2.83-2.58c0.51,0.48,1,0.94,1.55,1.45
		C50.98,52.18,50,53.06,49,53.98z"/>
	<path class="st0" d="M54.73,24.86c0.96,1.06,1.82,2.03,2.72,3.03c-0.55,0.47-1.05,0.9-1.6,1.37c-0.87-0.96-1.73-1.91-2.54-2.81
		C53.78,25.92,54.23,25.42,54.73,24.86z"/>
	<path class="st0" d="M23.27,45.85c0.58-0.5,1.08-0.92,1.6-1.37c0.88,0.97,1.73,1.89,2.57,2.81c-0.48,0.51-0.94,0.99-1.45,1.54
		C25.08,47.83,24.19,46.86,23.27,45.85z"/>
	<path class="st0" d="M31.04,19.8c0.49,0.58,0.92,1.08,1.37,1.61c-0.98,0.88-1.92,1.73-2.82,2.55c-0.51-0.48-0.99-0.93-1.54-1.44
		C29.04,21.6,30.01,20.72,31.04,19.8z"/>
	<path class="st0" d="M33.39,61.69c1.16-0.58,2.27-1.13,3.47-1.73c0.32,0.59,0.65,1.17,1.02,1.85c-1.19,0.6-2.35,1.18-3.62,1.82
		C33.96,62.95,33.68,62.33,33.39,61.69z"/>
	<path class="st0" d="M37.36,15.01c0.4,0.6,0.77,1.15,1.18,1.75c-1.02,0.73-2.02,1.45-3.08,2.21c-0.42-0.56-0.83-1.09-1.27-1.68
		C35.26,16.51,36.29,15.77,37.36,15.01z"/>
	<path class="st0" d="M58.29,32.3c0.56-0.43,1.09-0.82,1.68-1.27c0.77,1.07,1.51,2.11,2.28,3.17c-0.6,0.41-1.17,0.79-1.75,1.18
		C59.75,34.34,59.03,33.33,58.29,32.3z"/>
	<path class="st0" d="M45.88,56.53c-1.08,0.78-2.09,1.52-3.15,2.28c-0.42-0.61-0.79-1.15-1.19-1.74c1.01-0.73,2.01-1.45,3.05-2.21
		C45.01,55.4,45.41,55.92,45.88,56.53z"/>
	<path class="st0" d="M64.5,37.84c0.49,0.92,0.94,1.76,1.43,2.67c-0.64,0.32-1.24,0.62-1.89,0.94c-0.46-0.86-0.9-1.68-1.38-2.56
		C63.26,38.54,63.85,38.21,64.5,37.84z"/>
	<path class="st0" d="M14.17,26.63c-0.68,0.23-1.31,0.43-2,0.67c-0.28-0.98-0.55-1.91-0.83-2.91c0.72-0.17,1.38-0.32,2.06-0.48
		C13.66,24.83,13.9,25.7,14.17,26.63z"/>
	<path class="st0" d="M29.78,63.08c0.22,0.67,0.43,1.3,0.67,2c-0.96,0.28-1.9,0.54-2.91,0.83c-0.17-0.72-0.32-1.38-0.48-2.06
		C27.98,63.59,28.84,63.35,29.78,63.08z"/>
</g>
</svg>
