<?xml version="1.0" encoding="utf-8"?>
<!-- Generator: Adobe Illustrator 24.0.2, SVG Export Plug-In . SVG Version: 6.00 Build 0)  -->
<svg version="1.1" id="Capa_1" xmlns="http://www.w3.org/2000/svg" xmlns:xlink="http://www.w3.org/1999/xlink" x="0px" y="0px"
	 viewBox="0 0 80.65 74.1" style="enable-background:new 0 0 80.65 74.1;" xml:space="preserve">
<style type="text/css">
	.st0{fill:#FFFFFF;}
	.st1{fill:#EFC100;}
	.st2{fill:#1D1D1B;}
	.st3{opacity:0.6;fill:#1D1D1B;}
	.st4{fill:url(#SVGID_19_);}
	.st5{opacity:0.5;}
	.st6{fill:url(#SVGID_28_);}
	.st7{fill:url(#SVGID_29_);}
	.st8{fill:#7FFF00;}
	.st9{fill:#B7B7B7;}
	.st10{fill:#D8D8D8;}
</style>
<g>
	<path class="st10" d="M69.01,40.68c-0.07,0.57-0.16,1.13-0.27,1.69c-1.15,6.01-3.92,11.15-8.29,15.42
		c-2.36,2.31-5.05,4.15-8.05,5.53c-3,1.38-6.14,2.22-9.44,2.51c-0.08,0.01-0.2-0.03-0.22,0.11c-0.06,0-0.11,0-0.17,0
		c-0.23-0.1-0.45-0.07-0.68,0c-1.04,0-2.08,0-3.12,0c-0.23-0.07-0.45-0.11-0.68,0c-0.06,0-0.11,0-0.17,0
		c-0.01-0.13-0.12-0.1-0.19-0.11c-0.35-0.04-0.69-0.07-1.04-0.11c-3.25-0.4-6.34-1.35-9.27-2.81c-2.4-1.19-4.58-2.7-6.56-4.51
		c-0.36-0.33-0.68-0.69-1.04-1.07c0.36,0,0.7,0,1.04,0c0.91-0.01,0.73,0.13,0.92-0.75c0.82-3.77,1.62-7.54,2.44-11.31
		c0.57-2.67,1.15-5.35,1.72-8.02c0.07-0.34,0.05-0.36-0.28-0.36c-0.9,0-1.79,0-2.69-0.01c-0.24,0-0.36,0.07-0.4,0.32
		c-0.1,0.53-0.22,1.05-0.33,1.58c-0.45,2.11-0.91,4.22-1.35,6.34c-0.06,0.29-0.18,0.4-0.48,0.38c-0.4-0.02-0.79,0-1.19-0.01
		c-0.46,0-0.46,0-0.36-0.44c0.56-2.62,1.12-5.24,1.69-7.85c0.06-0.25-0.02-0.31-0.26-0.31c-0.92,0.01-1.83,0.01-2.75-0.01
		c-0.25,0-0.34,0.1-0.39,0.33c-0.82,3.83-1.64,7.65-2.46,11.48c-0.08,0.35-0.12,0.71-0.26,1.07c-0.04-0.04-0.07-0.06-0.08-0.08
		c-0.05-0.08-0.09-0.17-0.13-0.25c-1.98-4.25-2.92-8.7-2.74-13.39c0.05-1.47,0.2-2.94,0.48-4.38c1.03-5.33,3.37-10.01,7.01-14.02
		c2.39-2.64,5.19-4.77,8.38-6.38c3.68-1.85,7.58-2.86,11.68-3.05c1.86-0.09,3.72,0,5.56,0.28c3.4,0.51,6.62,1.58,9.63,3.24
		c2.02,1.11,3.88,2.44,5.59,3.99c0.13,0.11,0.16,0.22,0.12,0.4c-0.19,0.82-0.36,1.64-0.53,2.46c-0.8,3.71-1.59,7.41-2.39,11.12
		c-0.42,1.95-0.84,3.91-1.27,5.86c-0.1,0.45-0.1,0.45,0.37,0.45c0.83,0,1.66,0,2.49,0c0.42,0,0.43,0,0.52-0.42
		c0.58-2.7,1.16-5.4,1.75-8.1c0.02-0.1,0.02-0.24,0.15-0.23c0.14,0.01,0.12,0.15,0.12,0.25c0.06,1.08,0.11,2.17,0.17,3.25
		c0.08,1.66,0.16,3.32,0.23,4.97c0.01,0.2,0.08,0.29,0.29,0.29c1.06,0,2.11,0,3.17,0c0.2,0,0.24-0.08,0.22-0.26
		c-0.2-1.46-0.39-2.92-0.58-4.37c-0.2-1.48-0.39-2.95-0.6-4.43c-0.04-0.25,0.04-0.39,0.29-0.49c0.78-0.31,1.41-0.82,1.89-1.52
		c0.06-0.08,0.08-0.23,0.19-0.22c0.11,0.01,0.12,0.15,0.16,0.25c1.25,2.73,2.07,5.57,2.44,8.53C69.01,33.46,69.46,37.09,69.01,40.68
		z M43.9,15.48c-0.94,0-1.71,0.01-2.49,0c-0.22,0-0.32,0.08-0.37,0.29c-0.09,0.45-0.19,0.9-0.29,1.36
		c-0.81,3.78-1.63,7.56-2.44,11.34c-0.51,2.39-1.02,4.78-1.54,7.16c-0.04,0.2-0.02,0.31,0.21,0.3c1.71-0.03,3.42,0.1,5.12-0.06
		c1.25-0.11,2.32-0.62,3.14-1.61c0.61-0.75,0.97-1.61,1.18-2.55c0.57-2.62,1.14-5.23,1.69-7.85c0.34-1.62,0.76-3.23,0.99-4.88
		c0.1-0.73,0.05-1.46-0.3-2.12c-0.47-0.89-1.31-1.2-2.24-1.32C45.62,15.42,44.68,15.51,43.9,15.48z M31.63,36.6
		c-0.3-0.01-0.65,0.01-0.99,0.06c-1.08,0.15-2.04,0.55-2.81,1.34c-0.8,0.83-1.23,1.85-1.47,2.95c-0.63,2.89-1.26,5.79-1.87,8.68
		c-0.33,1.57-0.79,3.11-0.93,4.71c-0.14,1.56,0.46,2.77,2.18,3.17c0.78,0.18,1.57,0.19,2.36,0.1c1.06-0.13,2.02-0.49,2.8-1.23
		c0.86-0.81,1.33-1.85,1.58-2.98c0.83-3.83,1.66-7.67,2.48-11.5c0.19-0.88,0.42-1.75,0.35-2.65c-0.08-1.11-0.59-1.93-1.66-2.35
		C33.02,36.65,32.36,36.58,31.63,36.6z M31.13,36.21c0.27,0.01,0.62-0.01,0.96-0.06c1.06-0.16,2.01-0.54,2.78-1.32
		c0.79-0.8,1.23-1.78,1.46-2.86c0.82-3.76,1.63-7.52,2.43-11.28c0.2-0.92,0.44-1.83,0.41-2.79c-0.05-1.34-0.83-2.3-2.14-2.59
		c-0.81-0.18-1.63-0.21-2.45-0.11c-1.3,0.17-2.43,0.68-3.25,1.75c-0.59,0.76-0.92,1.64-1.12,2.57c-0.83,3.82-1.65,7.65-2.47,11.48
		c-0.2,0.92-0.44,1.84-0.31,2.79c0.13,0.92,0.56,1.61,1.4,2.02C29.54,36.14,30.29,36.22,31.13,36.21z M38.85,36.94
		C38.85,36.94,38.85,36.93,38.85,36.94c-0.35-0.01-0.7-0.01-1.05-0.01c-0.78,0-0.63-0.08-0.79,0.64
		c-1.08,5.01-2.16,10.01-3.23,15.02c-0.18,0.86-0.39,1.71-0.29,2.6c0.11,0.96,0.55,1.69,1.45,2.11c0.67,0.32,1.39,0.39,2.12,0.39
		c1.01,0.01,1.98-0.15,2.87-0.63c1.2-0.65,1.89-1.7,2.29-2.97c0.26-0.83,0.4-1.69,0.58-2.54c1.03-4.76,2.05-9.51,3.07-14.27
		c0.06-0.3,0.04-0.33-0.26-0.33c-0.87,0-1.74-0.01-2.61-0.01c-0.45,0-0.45,0-0.55,0.45c-1.1,5.15-2.21,10.29-3.31,15.44
		c-0.09,0.4-0.14,0.82-0.4,1.17c-0.29,0.4-0.94,0.58-1.4,0.37c-0.35-0.15-0.46-0.48-0.34-1.06c0.76-3.57,1.53-7.14,2.3-10.7
		c0.38-1.77,0.77-3.54,1.15-5.31c0.07-0.34,0.06-0.35-0.25-0.36C39.76,36.94,39.31,36.94,38.85,36.94z M45.87,50.42
		C45.87,50.42,45.87,50.41,45.87,50.42c-0.45-0.01-0.91,0.01-1.36-0.01c-0.26-0.01-0.37,0.1-0.41,0.34
		c-0.1,0.51-0.21,1.01-0.32,1.52c-0.2,0.95-0.45,1.89-0.36,2.88c0.1,1.06,0.6,1.84,1.61,2.23c0.88,0.35,1.8,0.38,2.73,0.3
		c2.18-0.19,3.63-1.32,4.33-3.38c0.43-1.28,0.66-2.61,0.9-3.94c0.23-1.27-0.13-2.41-0.92-3.42c-0.3-0.39-0.67-0.72-1.03-1.04
		c-0.55-0.49-1.09-0.99-1.48-1.63c-0.24-0.39-0.45-0.81-0.37-1.28c0.13-0.72,0.3-1.44,0.47-2.16c0.03-0.14,0.09-0.27,0.16-0.39
		c0.27-0.48,0.91-0.71,1.43-0.51c0.4,0.15,0.52,0.5,0.39,1.13c-0.18,0.86-0.36,1.72-0.56,2.57c-0.04,0.19-0.02,0.27,0.2,0.28
		c0.93,0.03,1.87,0.02,2.8,0.04c0.25,0,0.35-0.1,0.4-0.33c0.08-0.43,0.18-0.85,0.27-1.27c0.2-1.01,0.49-2,0.43-3.04
		c-0.07-1.19-0.7-2.05-1.83-2.43c-0.74-0.25-1.5-0.27-2.27-0.23c-2.13,0.11-3.67,1.09-4.47,3.11c-0.44,1.11-0.6,2.3-0.84,3.46
		c-0.12,0.61-0.1,1.22,0.03,1.83c0.26,1.14,0.94,2,1.8,2.74c0.57,0.49,1.1,1.01,1.5,1.64c0.3,0.47,0.5,0.98,0.39,1.55
		c-0.17,0.85-0.37,1.7-0.56,2.54c-0.06,0.27-0.21,0.5-0.42,0.69c-0.31,0.27-0.95,0.34-1.28,0.13c-0.38-0.24-0.35-0.61-0.28-0.99
		c0.18-0.87,0.37-1.73,0.56-2.6c0.07-0.34,0.06-0.35-0.29-0.35C46.76,50.42,46.31,50.42,45.87,50.42z M25.83,15.12
		c-0.38,0-0.75,0.01-1.13,0.07c-1.23,0.19-2.28,0.7-3.06,1.7c-0.56,0.72-0.91,1.55-1.1,2.43c-0.84,3.86-1.67,7.72-2.5,11.59
		c-0.18,0.85-0.39,1.69-0.35,2.57c0.06,1.21,0.68,2.09,1.83,2.45c1.28,0.41,2.57,0.36,3.84-0.05c1.55-0.49,2.5-1.61,3.01-3.11
		c0.41-1.19,0.57-2.44,0.85-3.66c0.06-0.24-0.1-0.22-0.25-0.22c-0.92,0-1.85,0-2.77-0.01c-0.23,0-0.34,0.08-0.39,0.3
		c-0.09,0.46-0.18,0.92-0.29,1.38c-0.13,0.56-0.19,1.14-0.41,1.67c-0.24,0.56-0.88,0.83-1.47,0.64c-0.4-0.13-0.54-0.49-0.41-1.1
		c0.88-4.08,1.76-8.17,2.64-12.25c0.06-0.26,0.14-0.51,0.29-0.73c0.28-0.41,0.93-0.58,1.4-0.38c0.35,0.15,0.47,0.48,0.35,1.05
		c-0.18,0.86-0.37,1.72-0.55,2.57c-0.07,0.31-0.04,0.34,0.28,0.35c0.89,0.01,1.77,0.02,2.66,0.04c0.26,0.01,0.39-0.07,0.44-0.34
		c0.11-0.6,0.26-1.2,0.38-1.8c0.19-0.9,0.43-1.8,0.3-2.74c-0.12-0.9-0.54-1.6-1.37-2.01C27.36,15.2,26.61,15.12,25.83,15.12z
		 M50.75,35.93C50.75,35.93,50.75,35.94,50.75,35.93c1.24,0.01,2.47,0,3.71,0.01c0.21,0,0.3-0.07,0.35-0.27
		c0.18-0.88,0.38-1.75,0.56-2.63c0.07-0.32,0.05-0.34-0.28-0.34c-1.3,0-2.61,0-3.91,0c-0.33,0-0.35-0.02-0.28-0.34
		c0.33-1.54,0.67-3.08,0.99-4.62c0.06-0.31,0.19-0.39,0.49-0.39c1.09,0.02,2.17,0.01,3.26,0.01c0.17,0,0.31-0.01,0.36-0.22
		c0.19-0.93,0.4-1.86,0.6-2.79c0.03-0.15-0.01-0.21-0.16-0.22c-0.24-0.01-0.47-0.03-0.71-0.03c-0.9,0-1.79,0-2.69,0
		c-0.34,0-0.35-0.01-0.28-0.36c0.33-1.55,0.66-3.1,0.98-4.65c0.05-0.25,0.16-0.34,0.42-0.33c1.31,0.01,2.62,0,3.94,0.02
		c0.24,0,0.35-0.07,0.4-0.32c0.18-0.87,0.36-1.74,0.56-2.6c0.06-0.26,0-0.33-0.26-0.33c-2.43-0.02-4.85,0.04-7.28-0.04
		c-0.29-0.01-0.41,0.08-0.47,0.37c-0.68,3.2-1.37,6.4-2.06,9.6c-0.73,3.38-1.45,6.77-2.18,10.15c-0.07,0.32-0.06,0.33,0.28,0.33
		C48.31,35.93,49.53,35.93,50.75,35.93z M61.09,36.99C61.09,36.99,61.09,36.99,61.09,36.99c-1.22-0.01-2.43,0-3.65-0.01
		c-0.28,0-0.37,0.1-0.43,0.36c-0.49,2.32-0.99,4.65-1.49,6.97c-0.92,4.26-1.83,8.52-2.76,12.77c-0.06,0.25,0.01,0.33,0.27,0.33
		c2.43,0,4.87,0.02,7.3,0.04c0.27,0,0.38-0.08,0.44-0.35c0.17-0.86,0.36-1.72,0.56-2.57c0.06-0.27-0.01-0.33-0.26-0.33
		c-1.29,0-2.58-0.02-3.88-0.03c-0.38,0-0.4-0.02-0.32-0.39c0.33-1.54,0.67-3.08,0.99-4.62c0.05-0.25,0.16-0.34,0.42-0.34
		c1.09,0.01,2.17,0,3.26,0.02c0.28,0,0.4-0.08,0.46-0.36c0.16-0.84,0.35-1.68,0.53-2.52c0.08-0.36,0.07-0.36-0.3-0.37
		c-1.1-0.01-2.21,0.03-3.31-0.03c-0.2-0.01-0.27-0.05-0.22-0.27c0.34-1.57,0.68-3.13,1-4.7c0.06-0.3,0.19-0.37,0.48-0.37
		c1.3,0.01,2.6,0,3.91,0.01c0.23,0,0.33-0.07,0.38-0.3c0.17-0.87,0.37-1.73,0.56-2.6c0.07-0.32,0.06-0.34-0.27-0.34
		C63.53,36.99,62.31,36.99,61.09,36.99z"/>
	<path class="st10" d="M18.48,55.94c0.08-0.03,0.07-0.09,0.08-0.13c0.49-2.28,0.98-4.55,1.48-6.83c0.05-0.22-0.05-0.26-0.23-0.26
		c-0.49,0-0.98,0.01-1.47,0c-0.21-0.01-0.3,0.09-0.34,0.28c-0.3,1.39-0.56,2.79-0.91,4.17c-0.16,0.61-0.07,1.07,0.36,1.53
		C17.81,55.09,18.1,55.56,18.48,55.94z M62.09,24.14c0.94-0.02,1.35-0.35,1.56-1.27c0.15-0.66,0.28-1.33,0.43-1.99
		c0.04-0.16,0.02-0.29-0.08-0.42c-0.35-0.46-0.7-0.93-1.05-1.4c-0.05-0.07-0.09-0.17-0.18-0.16c-0.1,0.02-0.08,0.14-0.1,0.21
		c-0.34,1.58-0.68,3.17-1.02,4.75c-0.05,0.21,0.03,0.28,0.22,0.28C61.94,24.13,62.01,24.14,62.09,24.14z"/>
	<path class="st10" d="M38.1,65.95c0.23-0.11,0.45-0.07,0.68,0C38.55,65.95,38.32,65.95,38.1,65.95z"/>
	<path class="st10" d="M41.89,65.95c0.23-0.07,0.45-0.1,0.68,0C42.34,65.95,42.12,65.95,41.89,65.95z"/>
	<path class="st10" d="M18.48,55.94c-0.38-0.38-0.67-0.85-1.04-1.24c-0.43-0.45-0.51-0.91-0.36-1.53c0.35-1.38,0.62-2.78,0.91-4.17
		c0.04-0.2,0.13-0.29,0.34-0.28c0.49,0.01,0.98,0.01,1.47,0c0.19,0,0.28,0.04,0.23,0.26c-0.5,2.27-0.99,4.55-1.48,6.83
		C18.55,55.86,18.56,55.91,18.48,55.94z"/>
	<path class="st10" d="M62.09,24.14c-0.08,0-0.15,0-0.23,0c-0.2,0-0.27-0.07-0.22-0.28c0.34-1.58,0.68-3.17,1.02-4.75
		c0.02-0.08,0-0.2,0.1-0.21c0.09-0.01,0.13,0.09,0.18,0.16c0.35,0.47,0.7,0.93,1.05,1.4c0.1,0.13,0.12,0.27,0.08,0.42
		c-0.15,0.66-0.28,1.33-0.43,1.99C63.44,23.79,63.03,24.12,62.09,24.14z"/>
	<path class="st10" d="M41.48,32.69c-0.75-0.01-0.7,0.09-0.54-0.66c0.55-2.57,1.09-5.13,1.64-7.7c0.38-1.77,0.76-3.54,1.14-5.32
		c0.04-0.2,0.14-0.31,0.36-0.3c0.33,0.01,0.66,0.01,0.99,0.06c0.41,0.06,0.64,0.45,0.54,0.92c-0.18,0.89-0.38,1.78-0.57,2.67
		c-0.45,2.1-0.9,4.21-1.35,6.31c-0.19,0.9-0.38,1.8-0.58,2.7C42.88,32.43,42.55,32.69,41.48,32.69z"/>
	<path class="st10" d="M31.81,40.75c-0.04,0.43-0.19,0.97-0.31,1.51c-0.78,3.65-1.57,7.3-2.36,10.95c-0.16,0.76-0.48,1.1-1.12,1.2
		c-0.69,0.1-1.09-0.31-0.95-1.01c0.17-0.84,0.36-1.68,0.54-2.52c0.7-3.25,1.4-6.51,2.1-9.76c0.05-0.21,0.1-0.42,0.19-0.62
		c0.26-0.53,0.79-0.78,1.37-0.65C31.67,39.95,31.82,40.16,31.81,40.75z"/>
	<path class="st10" d="M35.67,19.29c-0.05,0.49-0.22,1.09-0.34,1.68c-0.77,3.61-1.55,7.22-2.33,10.84
		c-0.15,0.71-0.49,1.06-1.08,1.15c-0.72,0.11-1.12-0.3-0.98-1.01c0.16-0.79,0.33-1.57,0.5-2.35c0.71-3.31,1.42-6.62,2.14-9.92
		c0.06-0.27,0.12-0.53,0.27-0.77c0.3-0.47,0.93-0.67,1.44-0.45C35.57,18.58,35.67,18.77,35.67,19.29z"/>
</g>
</svg>
