<?xml version="1.0" encoding="utf-8"?>
<!-- Generator: Adobe Illustrator 24.0.2, SVG Export Plug-In . SVG Version: 6.00 Build 0)  -->
<svg version="1.1" id="Capa_1" xmlns="http://www.w3.org/2000/svg" xmlns:xlink="http://www.w3.org/1999/xlink" x="0px" y="0px"
	 viewBox="0 0 80.65 74.1" style="enable-background:new 0 0 80.65 74.1;" xml:space="preserve">
<style type="text/css">
	.st0{fill:#FFFFFF;}
	.st1{fill:#EFC100;}
	.st2{fill:#1D1D1B;}
	.st3{opacity:0.6;fill:#1D1D1B;}
	.st4{fill:url(#SVGID_19_);}
	.st5{opacity:0.5;}
	.st6{fill:url(#SVGID_28_);}
	.st7{fill:url(#SVGID_29_);}
	.st8{fill:#7FFF00;}
	.st9{fill:#B7B7B7;}
	.st10{fill:#D8D8D8;}
</style>
<g>
	<path class="st0" d="M43.34,66.12v-7.5H23.51v-5.66H11.26V36.33h12.2V24.62h-12.2V8.03h25.99v16.54h-12.2v11.71l0.35,0.02
		c0.12,0.01,0.24,0.02,0.36,0.02l4.24,0c1.63,0,3.25,0,4.88,0.01h0c0.53,0,0.79-0.19,0.9-0.66c0.51-2.1,1.83-3.63,3.19-4.98
		c5.27-5.2,10.58-10.52,15.72-15.68l5.25-5.25c1.18-1.18,2.5-1.78,3.92-1.78c0.65,0,1.32,0.13,2.01,0.37
		c1.67,0.6,2.89,1.95,3.34,3.7c0.45,1.75,0.02,3.6-1.16,4.94c-0.18,0.2-0.36,0.39-0.55,0.58l-1.86,1.86
		c-6.92,6.92-13.84,13.84-20.77,20.76c-0.23,0.23-0.55,0.43-0.86,0.56c-2.17,0.84-4.15,1.58-6.05,2.27
		c-0.42,0.15-0.67,0.36-0.67,0.93c0.02,2.14,0.02,4.28,0.01,6.41l0,2.56H25.05v4.15H43.3v-7.49h26.07v16.53H43.34z M44.89,64.62
		h22.98V51.08H44.89V64.62z M12.75,51.4h22.93l0.04-0.14c0.03-0.11,0.05-0.17,0.05-0.23l0-0.76c0-2.12,0.01-4.24-0.01-6.36
		c0-0.22-0.21-0.49-0.4-0.58c-1.29-0.65-1.75-1.79-1.26-3.14l0.85-2.31h-22.2V51.4z M37.04,36.63c-0.53,1.41-1.06,2.83-1.58,4.26
		c-0.09,0.25-0.06,0.52,0.09,0.73c0.15,0.22,0.41,0.35,0.69,0.35l0,0c0.08,0,0.17-0.01,0.25-0.03c0.34-0.1,0.68-0.22,1.01-0.35
		l5.16-1.94l-4.92-4.9L37.04,36.63z M41.99,36.55l2.09,2.09l15.8-15.8l-2.07-2.1L41.99,36.55z M38.69,33.33l2.09,2.07l15.81-15.81
		l-2.08-2.08L38.69,33.33z M12.76,23.08h22.98V9.52H12.76V23.08z M55.68,16.23l5.41,5.41l1.68-1.53l-5.48-5.49L55.68,16.23z
		 M63.93,9.48c-0.85,0-1.62,0.28-2.24,0.81c-0.77,0.66-1.45,1.44-2.11,2.18c-0.29,0.33-0.57,0.65-0.86,0.96l-0.12,0.13l5.28,5.29
		L64,18.73c0.31-0.29,0.62-0.58,0.94-0.87c0.72-0.65,1.46-1.32,2.11-2.07c1.25-1.44,1.12-3.69-0.3-5.12
		C66.01,9.91,64.97,9.48,63.93,9.48z"/>
	<rect x="54.7" y="32.57" class="st0" width="10.89" height="1.46"/>
	<rect x="54.7" y="36.35" class="st0" width="10.89" height="1.46"/>
	<rect x="54.69" y="40.13" class="st0" width="1.47" height="1.45"/>
	<rect x="58.48" y="40.13" class="st0" width="1.45" height="1.46"/>
	<rect x="62.26" y="40.13" class="st0" width="1.45" height="1.46"/>
	<rect x="47.13" y="53.38" class="st0" width="18.45" height="1.4"/>
	<rect x="47.15" y="57.14" class="st0" width="18.44" height="1.43"/>
	<rect x="47.14" y="60.92" class="st0" width="14.68" height="1.41"/>
	<rect x="64.16" y="60.94" class="st0" width="1.42" height="1.43"/>
	<rect x="15.03" y="11.82" class="st0" width="18.46" height="1.42"/>
	<rect x="15.05" y="15.59" class="st0" width="18.45" height="1.41"/>
	<rect x="15.03" y="19.38" class="st0" width="14.68" height="1.41"/>
	<rect x="32.02" y="19.37" class="st0" width="1.47" height="1.43"/>
	<rect x="15.06" y="43.91" class="st0" width="16.53" height="1.45"/>
	<rect x="15.04" y="40.13" class="st0" width="16.53" height="1.45"/>
	<rect x="15.06" y="47.69" class="st0" width="14.66" height="1.45"/>
	<rect x="32.04" y="47.69" class="st0" width="1.43" height="1.47"/>
</g>
</svg>
