<?xml version="1.0" encoding="utf-8"?>
<!-- Generator: Adobe Illustrator 24.0.2, SVG Export Plug-In . SVG Version: 6.00 Build 0)  -->
<svg version="1.1" id="Capa_1" xmlns="http://www.w3.org/2000/svg" xmlns:xlink="http://www.w3.org/1999/xlink" x="0px" y="0px"
	 viewBox="0 0 80.65 74.1" style="enable-background:new 0 0 80.65 74.1;" xml:space="preserve">
<style type="text/css">
	.st0{fill:#FFFFFF;}
	.st1{fill:#EFC100;}
	.st2{fill:#1D1D1B;}
	.st3{opacity:0.6;fill:#1D1D1B;}
	.st4{fill:url(#SVGID_19_);}
	.st5{opacity:0.5;}
	.st6{fill:url(#SVGID_28_);}
	.st7{fill:url(#SVGID_29_);}
	.st8{fill:#7FFF00;}
	.st9{fill:#B7B7B7;}
	.st10{fill:#D8D8D8;}
</style>
<g>
	<path class="st10" d="M27.58,25.71c0-1.73-0.01-3.46,0-5.19c0.01-1.2,0.21-1.4,1.37-1.4c1.14-0.01,2.29-0.08,3.43-0.03
		c3.26,0.14,5.14,1.77,5.68,4.96c0.26,1.55,0.18,3.11-0.31,4.62c-0.71,2.2-2.47,3.56-4.78,3.64c-1.35,0.05-2.71-0.03-4.06,0.03
		c-0.99,0.04-1.38-0.35-1.35-1.33C27.61,29.25,27.58,27.48,27.58,25.71z M29.85,25.67c0,0.87,0,1.73,0,2.6c0,2.11,0,2.11,2.16,2.06
		c1.48-0.04,2.71-0.49,3.38-1.95c1.85-4-0.23-7.32-4.57-7.29c-0.07,0-0.14,0.01-0.21,0c-0.58-0.08-0.8,0.13-0.78,0.74
		C29.88,23.11,29.85,24.39,29.85,25.67z"/>
	<path class="st10" d="M51.04,25.23c0,1.7,0.01,3.39,0,5.09c-0.01,1.35-0.38,1.86-1.68,2.05c-1.75,0.26-3.51,0.31-5.27-0.03
		c-1.86-0.37-2.91-1.5-3.22-3.32c-0.12-0.68-0.2-1.37-0.21-2.06c-0.03-2.15-0.02-4.29-0.02-6.44c0-1.32,0.7-1.79,2-1.39
		c0.46,0.14,0.32,0.47,0.33,0.75c0.01,1.9,0.01,3.81,0.01,5.71c0,0.52-0.01,1.04,0.01,1.56c0.09,2.46,1.01,3.35,3.46,3.39
		c2.3,0.03,2.3,0.03,2.3-2.25c0-2.77,0.04-5.54-0.03-8.31c-0.02-0.96,0.5-0.89,1.1-0.85c0.55,0.04,1.29-0.29,1.25,0.81
		C50.99,21.7,51.04,23.47,51.04,25.23z"/>
	<path class="st10" d="M24.44,32.33c-0.9,0.3-1.2-0.35-1.45-1.21c-0.5-1.7-0.53-1.69-2.26-1.69c-0.17,0-0.35,0-0.52,0
		c-2.42,0-2.42,0-3.26,2.22c-0.2,0.54-2.04,1-2.5,0.61c-0.24-0.2-0.1-0.46-0.03-0.66c1.32-3.89,2.66-7.76,3.98-11.65
		c0.31-0.91,1.03-0.87,1.77-0.88c0.76-0.01,1.3,0.15,1.58,1c1.23,3.66,2.52,7.31,3.78,10.96C26,32.33,25.99,32.33,24.44,32.33z
		 M20.17,21.9c-0.09,0.01-0.17,0.02-0.26,0.02c-0.51,1.66-1.02,3.32-1.53,4.97c-0.12,0.38-0.12,0.65,0.43,0.63
		c1-0.03,1.99-0.01,3.09-0.01C21.31,25.58,20.74,23.74,20.17,21.9z"/>
	<path class="st10" d="M5.26,26.6c0.1-1.48-0.18-3.29,0.15-5.08c0.25-1.33,1.11-2.25,2.42-2.32c2.01-0.11,4.02-0.09,6.03-0.08
		c0.9,0,0.48,0.74,0.55,1.17c0.07,0.48,0.02,0.88-0.67,0.86c-1.42-0.04-2.85-0.01-4.27-0.02c-1.6-0.01-1.87,0.26-1.87,1.87
		c0,0.28,0.02,0.56-0.01,0.83c-0.06,0.59,0.18,0.78,0.77,0.76c1.53-0.04,3.06,0.03,4.58-0.03c0.82-0.03,0.78,0.43,0.77,0.99
		c0,0.56,0.01,1.01-0.8,0.98c-1.42-0.06-2.85,0.04-4.27-0.04c-0.91-0.05-1.12,0.28-1.07,1.11c0.06,1.24-0.04,2.5,0.03,3.74
		c0.05,0.84-0.27,1.1-1.04,0.98c-0.17-0.03-0.35-0.03-0.52,0c-0.67,0.09-0.82-0.24-0.81-0.84C5.28,29.96,5.26,28.44,5.26,26.6z"/>
	<path class="st10" d="M44.77,54.98c-0.54,0.1-0.82-0.12-0.77-0.84c0.06-0.82,0-1.65,0.02-2.48c0-0.28-0.12-0.66,0.37-0.71
		c0.62-0.06,1.25-0.15,1.77,0.31c0.32,0.28,0.44,0.67,0.17,1.01c-0.29,0.36-0.39,0.58,0.05,0.93c0.35,0.29,0.29,0.77,0.07,1.15
		C46.09,54.95,45.48,54.96,44.77,54.98z M45.03,54.59c0.59-0.02,1.03-0.19,1.01-0.82c-0.02-0.58-0.47-0.7-0.94-0.75
		c-0.72-0.07-0.52,0.46-0.53,0.83C44.55,54.21,44.43,54.67,45.03,54.59z M44.57,51.95c0.01,0.37-0.07,0.78,0.5,0.7
		c0.43-0.07,0.85-0.19,0.82-0.74c-0.03-0.51-0.45-0.56-0.83-0.61C44.49,51.22,44.59,51.65,44.57,51.95z"/>
	<path class="st10" d="M5.41,45.85c0-0.17-0.05-0.36,0.01-0.52c0.18-0.51-0.49-1.31,0.5-1.54c0.96-0.22,2.24,0.23,2.58,0.92
		c0.42,0.85,0.35,1.72-0.26,2.44c-0.64,0.75-1.58,0.79-2.5,0.71c-0.33-0.03-0.33-0.29-0.33-0.54C5.41,46.82,5.41,46.33,5.41,45.85
		C5.41,45.85,5.41,45.85,5.41,45.85z M5.92,45.84c0,0.38,0,0.76,0,1.13c0,0.36,0.2,0.49,0.53,0.45c0.59-0.08,1.18-0.18,1.48-0.78
		c0.29-0.58,0.34-1.2-0.01-1.77c-0.37-0.6-1-0.76-1.62-0.66c-0.67,0.12-0.29,0.73-0.37,1.11C5.89,45.49,5.92,45.67,5.92,45.84z"/>
	<path class="st10" d="M28.1,45.22c0.16-0.39-0.31-1.33,0.23-1.33c0.59,0,0.18,0.9,0.27,1.4c0.06,0.37-0.02,0.76,0.04,1.14
		c0.08,0.54,0.3,1.03,0.96,1.02c0.64-0.02,0.89-0.48,0.91-1.05c0.03-0.69,0.01-1.38,0.01-2.07c0-0.24-0.02-0.53,0.33-0.52
		c0.3,0.02,0.22,0.29,0.23,0.48c0.01,0.69,0.04,1.38-0.01,2.07c-0.07,1-0.69,1.58-1.6,1.52c-0.92-0.06-1.33-0.63-1.36-1.51
		C28.09,46.02,28.1,45.68,28.1,45.22z"/>
	<path class="st10" d="M36.86,54.8c-0.72-0.39-0.74-1.12-0.56-1.84c0.2-0.82,0.88-1.05,2.06-0.74c0-0.36,0-0.7,0-1.04
		c0-0.21-0.02-0.46,0.28-0.44c0.25,0.02,0.28,0.24,0.28,0.47c0,1.1,0,2.2,0,3.31c0,0.18,0,0.33-0.19,0.43
		c-0.27,0.14-0.31-0.29-0.62-0.22c-0.16,0.04,0.01-0.28,0.08-0.44c0.08-0.18,0.17-0.38,0.18-0.57c0.04-0.45,0.07-0.93-0.42-1.19
		c-0.28-0.15-0.6-0.17-0.87,0.08c-0.37,0.34-0.44,0.78-0.34,1.24c0.07,0.29,0.24,0.55,0.37,0.83C37.04,54.71,36.95,54.76,36.86,54.8
		z"/>
	<path class="st10" d="M36.89,39.44c-0.8-0.23-0.9,0.32-1.04,0.83c-0.07,0.26-0.21,0.5-0.49,0.38c-0.26-0.11-0.07-0.35-0.01-0.53
		c0.33-0.97,0.66-1.95,1-2.92c0.09-0.25,0.14-0.55,0.52-0.53c0.31,0.02,0.38,0.25,0.46,0.48c0.34,0.97,0.69,1.94,1,2.93
		c0.05,0.17,0.34,0.47-0.08,0.57c-0.33,0.08-0.4-0.24-0.46-0.44C37.65,39.7,37.55,39.2,36.89,39.44z M36.82,37.42
		c-0.16,0.52-0.6,0.97-0.39,1.51c0.04,0.1,0.66,0.15,0.74,0.03C37.57,38.38,36.92,37.95,36.82,37.42z"/>
	<path class="st10" d="M8.39,52.53c-0.02,0.45,0.01,0.91-0.08,1.34C8.13,54.64,7.6,55,6.79,54.98C6,54.96,5.55,54.52,5.47,53.79
		c-0.08-0.75-0.05-1.52-0.04-2.28c0-0.21-0.12-0.56,0.27-0.53c0.29,0.02,0.19,0.31,0.2,0.5c0.01,0.66-0.02,1.31,0.02,1.97
		c0.04,0.59,0.25,1.11,0.97,1.12c0.73,0.01,0.94-0.51,0.97-1.1c0.04-0.69,0.02-1.38,0.03-2.07c0-0.21-0.01-0.44,0.3-0.41
		c0.26,0.02,0.18,0.25,0.19,0.4c0.01,0.38,0,0.76,0,1.14C8.37,52.53,8.38,52.53,8.39,52.53z"/>
	<path class="st10" d="M47.96,45.24c0.14-0.24,0.4-0.37,0.61-0.29c0.66,0.24,1.26,0.11,1.93,0.01c0.78-0.11,0.94,0.63,0.94,1.2
		c0,0.54,0.28,1.55-0.2,1.55c-0.73,0-0.22-0.91-0.34-1.42c-0.09-0.39,0.04-0.9-0.57-0.91c-0.6-0.01-0.71,0.43-0.7,0.93
		c0.01,0.38,0.01,0.76,0.01,1.14c0,0.18-0.05,0.37-0.26,0.36c-0.2-0.01-0.27-0.18-0.27-0.37c-0.01-0.38,0.01-0.76,0-1.13
		c-0.03-0.8-0.3-1.22-1.14-0.71C47.95,45.48,47.96,45.36,47.96,45.24z"/>
	<path class="st10" d="M53.11,40.42c-1.05,0.53-1.94,0.32-2.26-0.51c-0.33-0.85,0.05-1.77,0.84-2.06c0.64-0.24,1.1,0,1.42,0.52
		c0.42,0.68,0.23,0.97-0.59,1c-0.03,0-0.07,0-0.1,0.01c-0.36,0.13-1.08-0.32-1.05,0.31c0.03,0.63,0.69,0.77,1.31,0.58
		C52.82,40.22,52.95,40.2,53.11,40.42z M52.08,39.01c0.16-0.21,0.66,0.22,0.65-0.32c-0.01-0.4-0.34-0.55-0.73-0.54
		c-0.35,0.01-0.64,0.21-0.65,0.53C51.34,39.21,51.81,38.87,52.08,39.01z"/>
	<path class="st10" d="M16.13,46.37c0.01-0.11,0-0.15,0.01-0.18c0.15-0.39-0.39-1.1,0.32-1.17c1.91-0.19,2.15-0.01,2.14,1.28
		c-0.01,0.5,0.32,1.37-0.25,1.43c-0.44,0.05-0.17-0.86-0.24-1.34c-0.07-0.48-0.02-1.06-0.73-1.01c-0.64,0.04-0.64,0.56-0.69,1.08
		c-0.05,0.46,0.3,1.33-0.28,1.29C15.82,47.7,16.29,46.79,16.13,46.37z"/>
	<path class="st10" d="M61.1,39.31c0,0.07,0,0.14,0,0.21c-0.01,1.07-0.01,1.07-0.39,1.07c-1.89-0.02-2.02-0.09-2.08-1.16
		c-0.02-0.41,0-0.83,0-1.24c0-0.21,0.11-0.33,0.3-0.34c0.22-0.01,0.28,0.16,0.27,0.35c0,0.38,0,0.76,0,1.14
		c0.01,0.42,0,0.89,0.58,0.92c0.61,0.03,0.72-0.43,0.76-0.9c0.03-0.34,0-0.69,0-1.03c0-0.21,0-0.46,0.26-0.49
		c0.29-0.02,0.28,0.24,0.28,0.44C61.1,38.62,61.1,38.96,61.1,39.31z"/>
	<path class="st10" d="M25.04,47.1c0.27-0.79,0.45-1.3,0.61-1.82c0.08-0.24,0.23-0.36,0.45-0.29c0.36,0.11,0.09,0.33,0.03,0.48
		c-0.35,0.9-0.7,1.79-1.08,2.67c-0.16,0.38-0.44,0.69-0.83,0.89c-0.14,0.07-0.27,0.08-0.35-0.06c-0.04-0.07-0.02-0.24,0.03-0.27
		c1.33-0.78,0.46-1.7,0.18-2.58c-0.04-0.13-0.13-0.25-0.14-0.39c-0.03-0.25-0.53-0.56-0.03-0.73c0.42-0.15,0.42,0.34,0.53,0.6
		C24.61,46.01,24.77,46.42,25.04,47.1z"/>
	<path class="st10" d="M54.88,46.35c0.01,0.9-0.61,1.57-1.44,1.55c-0.78-0.02-1.37-0.68-1.36-1.53c0.01-0.87,0.57-1.45,1.41-1.46
		C54.35,44.9,54.88,45.45,54.88,46.35z M53.67,45.33c-0.83,0.02-1.05,0.51-1.07,1.03c-0.02,0.53,0.21,1.07,0.86,1.08
		c0.64,0.01,0.89-0.49,0.9-1.04C54.37,45.86,54.16,45.4,53.67,45.33z"/>
	<path class="st10" d="M72.85,54.76c-0.65,0.34-1.29,0.39-1.86-0.09c-0.6-0.5-0.65-1.19-0.32-1.88c0.28-0.62,0.79-0.85,1.44-0.73
		c0.6,0.11,0.86,0.53,0.9,1.1c0.05,0.6-0.41,0.38-0.71,0.45c-0.41,0.1-1.16-0.33-1.17,0.32c-0.02,0.71,0.73,0.67,1.29,0.62
		C72.56,54.54,72.7,54.49,72.85,54.76z M71.88,53.29c0.15-0.21,0.6,0.19,0.61-0.27c0.01-0.39-0.3-0.6-0.71-0.59
		c-0.35,0.01-0.66,0.21-0.66,0.53C71.12,53.48,71.59,53.13,71.88,53.29z"/>
	<path class="st10" d="M52.69,54.65c-0.75,0.51-1.61,0.44-2.06-0.17c-0.45-0.61-0.34-1.74,0.26-2.17c0.57-0.41,1.17-0.42,1.68,0.11
		c0.25,0.26,0.42,0.62,0.31,0.94c-0.12,0.38-0.54,0.16-0.82,0.24c-0.38,0.11-1.06-0.37-1.11,0.29c-0.04,0.66,0.62,0.69,1.17,0.66
		C52.32,54.54,52.54,54.45,52.69,54.65z M51.59,53.24c0.23-0.1,0.68,0.21,0.7-0.29c0.01-0.36-0.3-0.51-0.65-0.5
		c-0.36,0.01-0.66,0.2-0.68,0.52C50.94,53.4,51.37,53.15,51.59,53.24z"/>
	<path class="st10" d="M18.79,54.9c-1.92,0.5-2.47-0.9-2.06-2c0.28-0.76,0.91-1.02,1.67-0.79c0.52,0.16,0.75,0.67,0.73,1.14
		c-0.03,0.58-0.57,0.27-0.89,0.34c-0.13,0.03-0.28-0.01-0.41,0.01c-0.23,0.05-0.62-0.18-0.66,0.25c-0.03,0.33,0.23,0.54,0.54,0.67
		C18.05,54.66,18.49,54.4,18.79,54.9z M17.87,53.27c0.21-0.17,0.69,0.24,0.7-0.3c0.01-0.36-0.28-0.52-0.62-0.54
		c-0.39-0.01-0.73,0.18-0.75,0.54C17.16,53.5,17.66,53.12,17.87,53.27z"/>
	<path class="st10" d="M63.9,38.13c1.28-0.72,1.97-0.37,2.02,0.95c0,0.14,0,0.28,0,0.41c0,1.03-0.39,1.37-1.44,1.24
		c-0.36-0.04-0.66-0.21-0.76-0.6c-0.09-0.38,0.02-0.68,0.31-0.92c0.22-0.18,0.47-0.27,0.76-0.3c0.24-0.03,0.63,0.03,0.53-0.39
		c-0.07-0.29-0.35-0.38-0.66-0.37C64.42,38.16,64.21,38.44,63.9,38.13z M65.44,39.64c0-0.27-0.09-0.49-0.41-0.43
		c-0.36,0.08-0.78,0.13-0.83,0.61c-0.03,0.34,0.2,0.52,0.49,0.52C65.12,40.33,65.39,40.09,65.44,39.64z"/>
	<path class="st10" d="M33.34,40.47c-0.78,0.4-1.5,0.43-2.06-0.24c-0.53-0.63-0.39-1.34,0-2.03c0.1-0.18,0.16-0.3,0.35-0.19
		c0.11,0.06,0.21,0.17,0.09,0.34c-0.13,0.18-0.4,0.47-0.05,0.57c0.37,0.11,0.84,0.09,1.21-0.05c0.2-0.07,0.01-0.42-0.14-0.62
		c-0.05-0.06-0.01-0.18-0.01-0.36c0.5,0.3,0.81,0.58,0.66,1.17c-0.12,0.49-0.5,0.21-0.76,0.3c-0.36,0.13-1.07-0.32-1.05,0.31
		c0.02,0.63,0.68,0.77,1.3,0.6C33.01,40.24,33.14,40.19,33.34,40.47z"/>
	<path class="st10" d="M20.23,38.11c1.42-0.7,2.07-0.3,2.09,1.18c0,0.07,0.01,0.14,0,0.21c-0.05,0.37,0.11,0.75-0.08,1.1
		c-0.57-0.33-1.04,0.28-1.58,0.16c-0.36-0.08-0.58-0.36-0.64-0.71c-0.06-0.36,0.07-0.68,0.38-0.89c0.13-0.1,0.31-0.14,0.46-0.2
		c0.28-0.11,0.86,0.11,0.8-0.37c-0.07-0.54-0.57-0.48-0.99-0.31C20.52,38.32,20.41,38.28,20.23,38.11z M21.39,39.23
		c-0.31,0.15-0.81,0.11-0.91,0.62c-0.06,0.31,0.12,0.55,0.47,0.5c0.42-0.06,0.82-0.2,0.84-0.73C21.8,39.4,21.74,39.2,21.39,39.23z"
		/>
	<path class="st10" d="M15.88,37.89c0,0.86,0.07,1.73-0.06,2.56c-0.03,0.17-0.83,0.27-1.28,0.3c-0.39,0.02-0.72-0.23-0.86-0.63
		c-0.23-0.67-0.08-1.37-0.1-2.05c0-0.16,0.13-0.25,0.27-0.23c0.19,0.03,0.27,0.17,0.27,0.37c0.01,0.48,0.02,0.96,0.03,1.44
		c0.01,0.37,0.18,0.56,0.59,0.54c0.4-0.02,0.67-0.15,0.68-0.59c0.01-0.57,0-1.15,0-1.72C15.58,37.88,15.73,37.89,15.88,37.89z"/>
	<path class="st10" d="M7.56,36.9c-0.45,0.63-1.62-0.5-1.68,0.86C5.83,39.06,7,38.12,7.37,38.6c0.03,0.18-0.11,0.27-0.23,0.25
		c-0.96-0.16-1.44,0.15-1.26,1.2c0.03,0.19,0.17,0.55-0.21,0.58c-0.4,0.02-0.24-0.34-0.25-0.54c-0.02-0.66-0.01-1.31,0-1.97
		C5.43,36.55,5.89,36.27,7.56,36.9z"/>
	<path class="st10" d="M29.61,53.42c0.09-0.44,0.76-0.17,0.61-0.64c-0.22-0.67-0.85-0.1-1.28-0.35c0.36-0.57,0.88-0.43,1.35-0.31
		c0.46,0.12,0.6,0.53,0.61,0.97c0,0.21,0.03,0.42,0,0.62c-0.05,0.4,0.12,0.82-0.09,1.21c-0.51-0.29-1.02,0.17-1.54,0.02
		c-0.57-0.17-0.82-0.89-0.44-1.31c0.08-0.08,0.23-0.14,0.35-0.14c0.1,0,0.25,0.05,0.13,0.25c-0.28,0.46-0.18,0.83,0.4,0.86
		c0.37,0.02,0.64-0.21,0.71-0.62C30.54,53.24,29.86,53.64,29.61,53.42z"/>
	<path class="st10" d="M55.95,38.1c-0.8,0.02-1.58,0.09-1.66,1.04c-0.1,1.17,0.83,1.17,1.69,1.23c-0.69,0.56-1.38,0.46-1.88-0.1
		c-0.53-0.6-0.53-1.37,0.01-1.99C54.62,37.7,55.28,37.54,55.95,38.1z"/>
	<path class="st10" d="M12.96,38.1c-0.83,0.07-1.7,0.04-1.67,1.18c0.03,1.07,0.84,1.07,1.67,1.06c-0.56,0.55-1.14,0.47-1.69,0.09
		c-0.63-0.43-0.77-1.4-0.27-2.04C11.51,37.74,12.17,37.51,12.96,38.1z"/>
	<path class="st10" d="M49.51,51.9c0.25,1.05,0.1,1.94,0.13,2.81c0.01,0.16-0.13,0.29-0.26,0.21c-0.63-0.37-1.72,0.64-2.01-0.61
		c-0.15-0.63-0.06-1.31-0.08-1.96c0-0.15,0.06-0.27,0.24-0.26c0.18,0.01,0.22,0.14,0.22,0.28c0.01,0.35,0,0.69,0.01,1.04
		c0.02,0.51-0.06,1.16,0.71,1.12c0.7-0.03,0.67-0.65,0.72-1.17C49.23,52.94,49,52.47,49.51,51.9z"/>
	<path class="st10" d="M15,54.34c0.28-0.79,0.48-1.33,0.67-1.87c0.09-0.25,0.24-0.5,0.5-0.38c0.23,0.1,0.07,0.35,0,0.54
		c-0.26,0.64-0.5,1.28-0.75,1.91c-0.07,0.18-0.14,0.4-0.4,0.42c-0.33,0.02-0.38-0.22-0.46-0.45c-0.24-0.64-0.5-1.28-0.74-1.92
		c-0.06-0.17-0.23-0.41,0.08-0.5c0.26-0.07,0.36,0.16,0.43,0.35C14.53,52.98,14.72,53.53,15,54.34z"/>
	<path class="st10" d="M58.12,38.06c-0.25,0.24-0.83,0.03-0.77,0.65c0.07,0.67-0.23,1.45,0.71,1.84c-0.7,0.28-1.1,0.17-1.23-0.62
		c-0.1-0.6,0.34-1.32-0.35-1.84c-0.03-0.02,0.28-0.6,0.52-0.81c0.23-0.2,0.33,0.03,0.35,0.27C57.41,37.99,57.95,37.66,58.12,38.06z"
		/>
	<path class="st10" d="M19.7,38.07c-0.82,0.33-1.03,1.67-0.37,2.16c0.13,0.09,0.36,0.08,0.26,0.32c-0.07,0.18-0.24,0.23-0.43,0.19
		c-0.1-0.02-0.21-0.04-0.3-0.09c-0.52-0.25-0.84-3.01-0.38-3.33c0.17-0.12,0.46-0.22,0.47,0.1C18.97,37.95,19.55,37.68,19.7,38.07z"
		/>
	<path class="st10" d="M40.21,52.29c0.45,0.32-0.52,0.82,0.19,0.89c0.29,0.03,1.25,0.67,1.09-0.52c-0.02-0.16,0.07-0.17,0.16-0.17
		c0.38,0.02,0.38,0.35,0.45,0.6c0.06,0.2,0.1,0.45-0.21,0.47c-0.34,0.03-0.69,0.01-1.04,0.03c-0.25,0.02-0.64-0.15-0.68,0.25
		c-0.04,0.38,0.25,0.65,0.63,0.7c0.36,0.05,0.73,0.01,1.09,0.15c-0.68,0.4-1.37,0.49-1.97-0.12C39.34,53.98,39.49,53.02,40.21,52.29
		z"/>
	<path class="st10" d="M50.42,38.06c-0.34,0.18-0.91,0.07-0.79,0.72c0.11,0.61-0.34,1.44,0.71,1.73c-0.54,0.24-0.96,0.31-1.15-0.44
		c-0.17-0.66,0.32-1.45-0.38-2.03c-0.02-0.01,0.3-0.58,0.55-0.74c0.31-0.2,0.24,0.18,0.31,0.33C49.78,37.96,50.19,37.72,50.42,38.06
		z"/>
	<path class="st10" d="M44.76,47.58c0.23-0.4,0.42-0.14,0.6-0.13c0.29,0.02,0.6,0.02,0.69-0.3c0.1-0.34-0.2-0.46-0.46-0.58
		c-0.5-0.22-1.02-0.51-0.71-1.15c0.35-0.69,0.97-0.56,1.56-0.39c-0.01,0.29-0.12,0.36-0.28,0.34c-0.31-0.05-0.69-0.15-0.8,0.23
		c-0.12,0.4,0.31,0.46,0.57,0.59c0.4,0.19,0.71,0.42,0.64,0.94c-0.05,0.35-0.25,0.57-0.56,0.68C45.55,47.96,45.12,47.95,44.76,47.58
		z"/>
	<path class="st10" d="M12.37,45.11c-0.23,0.35-0.41,0.26-0.57,0.24c-0.26-0.04-0.52-0.01-0.6,0.26c-0.09,0.3,0.19,0.4,0.41,0.49
		c0.59,0.25,1.12,0.62,0.7,1.31c-0.41,0.66-1.06,0.57-1.99,0.17c0.31-0.13,0.41-0.21,0.5-0.2c0.39,0.04,0.9,0.32,1.06-0.23
		c0.14-0.49-0.43-0.52-0.73-0.7c-0.43-0.27-0.71-0.64-0.36-1.11C11.19,44.77,11.74,44.82,12.37,45.11z"/>
	<path class="st10" d="M37.77,46.45c0.12-0.71,1.1-0.13,0.96-0.76c-0.16-0.72-0.89-0.17-1.4-0.35c0.3-0.57,0.8-0.42,1.24-0.39
		c0.44,0.04,0.69,0.37,0.73,0.76c0.07,0.58,0.08,1.17,0.08,1.76c0,0.29-0.14,0.45-0.47,0.29c-0.21-0.1-0.53-0.1-0.31-0.46
		C39.4,46.02,38.34,46.44,37.77,46.45z"/>
	<path class="st10" d="M73.56,54.7c0.19-0.33,0.4-0.14,0.59-0.14c0.28,0,0.6,0.05,0.68-0.3c0.08-0.34-0.19-0.45-0.46-0.57
		c-0.5-0.21-1.03-0.52-0.68-1.14c0.35-0.64,0.93-0.66,1.53-0.32c-0.01,0.29-0.16,0.26-0.29,0.27c-0.28,0.02-0.67-0.21-0.75,0.27
		c-0.06,0.35,0.27,0.43,0.52,0.54c0.58,0.25,0.98,0.68,0.54,1.28C74.78,55.18,74.16,55.15,73.56,54.7z"/>
	<path class="st10" d="M16.9,38.62c0-0.58,0-1.17,0-1.75c0-0.16-0.01-0.36,0.22-0.4c0.22-0.03,0.32,0.12,0.32,0.3
		c0.01,1.2,0.01,2.4,0.01,3.6c0,0.21-0.14,0.31-0.33,0.28c-0.24-0.03-0.22-0.22-0.22-0.39C16.9,39.72,16.9,39.17,16.9,38.62
		C16.9,38.62,16.9,38.62,16.9,38.62z"/>
	<path class="st10" d="M29.24,40.47c0.61-0.54,0.7-1.16,0.45-1.82c-0.25-0.65-0.83-0.56-1.34-0.37c-0.08-0.28,0-0.43,0.14-0.42
		c0.91,0.08,1.55-0.09,1.32-1.22c-0.01-0.04,0.14-0.14,0.22-0.15c0.19-0.02,0.21,0.14,0.21,0.27c0.01,1.17,0.08,2.35-0.01,3.52
		C30.17,41.14,29.54,40.08,29.24,40.47z"/>
	<path class="st10" d="M21.52,54.71c0.27-0.24,0.44-0.17,0.61-0.16c0.32,0.03,0.68,0.07,0.76-0.34c0.06-0.34-0.26-0.44-0.52-0.54
		c-0.58-0.24-1.03-0.62-0.57-1.25c0.39-0.55,0.95-0.55,1.5-0.12c-0.15,0.23-0.32,0.18-0.49,0.17c-0.24-0.02-0.53-0.06-0.62,0.23
		c-0.11,0.36,0.21,0.47,0.46,0.57c0.59,0.24,1.03,0.63,0.66,1.25C22.89,55.19,22.24,55.12,21.52,54.71z"/>
	<path class="st10" d="M25.04,40c0.12-0.59,0.37-1.2-0.27-1.67c-0.26-0.19,0.02-0.32,0.11-0.36c0.21-0.11,0.26-0.26,0.29-0.48
		c0.05-0.34-0.24-0.97,0.22-0.95c0.53,0.02,0.25,0.66,0.26,1.02c0.04,0.85-0.02,1.71,0.01,2.57c0.02,0.72-0.28,0.53-0.63,0.27
		C25.03,40.26,25.03,40.13,25.04,40z"/>
	<path class="st10" d="M27.12,52.23c0.77-0.04,0.23-0.63,0.38-0.93c0.09-0.18-0.14-0.54,0.27-0.53c0.3,0.01,0.21,0.29,0.21,0.48
		c0,1.22,0,2.44,0,3.86c-0.43-0.38-0.98-0.35-0.57-1.05c0.29-0.49,0.22-1.14-0.3-1.6C27.12,52.39,27.12,52.31,27.12,52.23z"/>
	<path class="st10" d="M60.51,54.73c0.89-0.39,1.1-0.71,0.21-1.07c-0.48-0.19-0.93-0.52-0.63-1.09c0.35-0.67,0.94-0.65,1.54-0.37
		c0.03,0.28-0.13,0.3-0.26,0.28c-0.31-0.03-0.72-0.12-0.81,0.25c-0.09,0.36,0.31,0.47,0.6,0.59c0.45,0.2,0.76,0.49,0.62,1.04
		C61.63,54.97,61.17,54.77,60.51,54.73z"/>
	<path class="st10" d="M8.79,38.98c0.23-0.16,0.8,0.03,0.71-0.39c-0.17-0.78-0.88-0.32-1.52-0.35c0.51-0.54,0.97-0.57,1.47-0.38
		c0.45,0.17,0.6,0.53,0.6,0.98c0,0.45-0.02,0.9,0,1.35c0.04,0.76-0.35,0.32-0.62,0.23c-0.14-0.03-0.27-0.05-0.41-0.08
		c0.5-0.37,1.09-0.74,0.03-1.15C8.96,39.13,8.87,39.06,8.79,38.98z"/>
	<path class="st10" d="M46.08,40.22c-0.15,0.51-0.55,0.58-0.98,0.5c-0.41-0.07-0.69-0.34-0.73-0.77c-0.05-0.58-0.07-1.17-0.09-1.76
		c-0.01-0.19,0.1-0.35,0.3-0.35c0.22,0,0.26,0.18,0.26,0.37c0,0.31,0.02,0.62-0.01,0.93c-0.08,0.93,0.32,1.29,1.23,1.05L46.08,40.22
		z"/>
	<path class="st10" d="M40.88,45.23c1.08-0.58,1.77-0.27,1.81,0.89c0.02,0.57,0.31,1.59-0.26,1.61c-0.61,0.02-0.22-0.96-0.28-1.48
		c-0.11-0.93-0.29-1.05-1.27-0.63C40.88,45.49,40.88,45.36,40.88,45.23z"/>
	<path class="st10" d="M42.75,38.1c0.33-0.18,0.69-0.52,0.67,0.26c-0.03,0.97,0,1.94-0.01,2.9c0,0.21,0.12,0.57-0.25,0.55
		c-0.35-0.02-0.19-0.37-0.22-0.59c-0.02-0.2,0.01-0.41,0.02-0.62c0.04-0.13,0.01-0.21-0.15-0.19c-0.51,0.25-1.02,0.4-1.54,0.03
		c0.09-0.09,0.19-0.18,0.28-0.27c0.45,0.35,0.89,0.19,1.18-0.15c0.41-0.51,0.28-1.1,0.01-1.66C42.74,38.27,42.74,38.19,42.75,38.1z"
		/>
	<path class="st10" d="M53.99,52.3c0.57-0.09,1.19-0.58,1.71,0.02c0.6,0.7,0.32,1.57,0.34,2.38c0,0.15-0.11,0.25-0.26,0.25
		c-0.22,0.01-0.3-0.13-0.3-0.32c-0.01-0.38,0-0.75-0.01-1.13c-0.03-1.07-0.23-1.2-1.23-0.79C54.15,52.58,54.07,52.44,53.99,52.3z"/>
	<path class="st10" d="M61.94,39.08c0-0.21-0.01-0.41,0-0.62c0.01-0.22,0.08-0.68,0.17-0.6c0.45,0.42,0.8-0.22,1.16-0.03
		c0.17,0.09,0.16,0.35-0.03,0.4c-1.03,0.3-0.63,1.14-0.72,1.79c-0.03,0.24,0.12,0.64-0.3,0.62c-0.41-0.01-0.26-0.4-0.28-0.65
		C61.92,39.69,61.94,39.38,61.94,39.08z"/>
	<path class="st10" d="M15.46,47.46c-1.53,0.75-2.46,0.33-2.5-0.9c-0.01-0.29-0.15-0.67,0.18-0.86c0.49-0.27,0.17,0.36,0.45,0.45
		c0.4,0.12,1.11-0.13,1.26-0.59c0.05-0.14,0.1-0.15,0.19-0.15c0.3-0.01,0.25,0.28,0.34,0.43c0.17,0.28-0.02,0.5-0.24,0.56
		c-0.33,0.08-0.68,0.03-1.02,0.06c-0.28,0.02-0.69-0.14-0.68,0.36c0.01,0.38,0.27,0.61,0.65,0.64
		C14.45,47.48,14.82,47.46,15.46,47.46z"/>
	<path class="st10" d="M40.23,38.26c-0.88,0.37-0.53,1.14-0.62,1.78c-0.03,0.23,0.18,0.63-0.29,0.61c-0.35-0.01-0.26-0.33-0.26-0.56
		c0-0.38-0.01-0.75-0.01-1.13C39.07,37.81,39.07,37.81,40.23,38.26z"/>
	<path class="st10" d="M33.5,45.12c-1.25,0.39-0.98,1.36-1,2.21c-0.01,0.21-0.01,0.47-0.27,0.48c-0.36,0.02-0.31-0.29-0.31-0.52
		c-0.01-0.34,0-0.69,0-1.03C31.93,45,31.93,45,33.5,45.12z"/>
	<path class="st10" d="M19.82,53.44c0-0.1,0.02-0.21,0-0.31c-0.35-1.17,0.72-0.79,1.18-1.07c0.03-0.02,0.18,0.1,0.2,0.17
		c0.02,0.06-0.07,0.2-0.13,0.23c-0.96,0.32-0.71,1.12-0.76,1.81c-0.02,0.24,0.17,0.66-0.25,0.65c-0.41-0.01-0.21-0.42-0.24-0.66
		C19.79,53.99,19.82,53.72,19.82,53.44C19.82,53.44,19.82,53.44,19.82,53.44z"/>
	<path class="st10" d="M68.81,52.06c0.48,0.06,0.66,0.5,1.17,0.27c-0.71,0.48-0.56,1.1-0.6,1.69c-0.03,0.32,0.26,0.93-0.3,0.91
		c-0.5-0.02-0.23-0.61-0.26-0.95C68.78,53.36,68.81,52.74,68.81,52.06z"/>
	<path class="st10" d="M34.05,43.49c0.76,0.45-0.06,1.47,0.92,1.73c-0.29,0.3-0.62,0.68-0.56,1.28c0.04,0.43,0.52,1-0.36,1.32
		C34.05,46.39,34.05,45,34.05,43.49z"/>
	<path class="st10" d="M33.37,52.23c0.73-0.12,0.24-0.69,0.37-1.03c0.06-0.14-0.04-0.38,0.19-0.41c0.31-0.04,0.29,0.2,0.29,0.41
		c0,1.23,0,2.46,0,3.79c-0.53-0.23-0.91-0.31-0.53-1c0.25-0.46,0.14-1.08-0.33-1.51C33.37,52.39,33.37,52.31,33.37,52.23z"/>
	<path class="st10" d="M58.59,54.78c-0.79,0.47-1.37,0.18-1.75-0.55c-0.43-0.8-0.12-1.55,1.03-2.25c-0.41,0.86-1.09,1.56-0.39,2.35
		c0.3,0.34,0.7,0.2,1.07,0.17C58.57,54.59,58.58,54.68,58.59,54.78z"/>
	<path class="st10" d="M10.26,52.48c-0.46,0.36-0.43,0.87-0.45,1.39c-0.02,0.36,0.24,1.04-0.22,1.03c-0.63-0.01-0.23-0.7-0.3-1.09
		c-0.06-0.33,0.03-0.69-0.01-1.02c-0.1-0.78,0.26-0.74,0.78-0.48C10.12,52.37,10.19,52.42,10.26,52.48z"/>
	<path class="st10" d="M41.54,40.18c-0.09,0.09-0.19,0.18-0.28,0.27c-0.64-0.81-0.71-1.7-0.11-2.28c0.48-0.47,1.04-0.66,1.6-0.07
		c-0.01,0.09-0.01,0.18-0.02,0.27c-0.42-0.2-0.86-0.34-1.19,0.11C41.13,39.03,41.18,39.61,41.54,40.18z"/>
	<path class="st10" d="M48.19,39.26c-0.26,0.43,0.37,1.28-0.36,1.32c-0.48,0.02-0.24-0.87-0.21-1.32c0.03-0.47-0.4-1.33,0.31-1.35
		C48.42,37.9,48,38.79,48.19,39.26z"/>
	<path class="st10" d="M33.37,52.23c0,0.08-0.01,0.16-0.01,0.25c-1.29-0.04-1.66,0.81-0.97,2.24c-0.81-0.38-1.03-0.95-0.74-1.76
		C31.97,52.05,32.62,52.03,33.37,52.23z"/>
	<path class="st10" d="M65.84,52.05c0.29,0.8,0.6,1.6,0.88,2.4c0.06,0.16,0.24,0.4-0.08,0.5c-0.27,0.08-0.31-0.16-0.43-0.32
		c-0.58-0.77-0.56-1.7-0.74-2.58C65.59,52.05,65.72,52.05,65.84,52.05z"/>
	<path class="st10" d="M13.19,53.52c-0.24,0.45,0.34,1.31-0.36,1.35c-0.46,0.03-0.25-0.87-0.22-1.34c0.03-0.48-0.39-1.34,0.31-1.37
		C13.41,52.15,12.99,53.05,13.19,53.52z"/>
	<path class="st10" d="M67.96,53.67c-0.15,0.37,0.29,1.22-0.29,1.21c-0.56-0.01-0.19-0.85-0.26-1.32c-0.06-0.37-0.01-0.76-0.01-1.14
		c0-0.19,0.08-0.34,0.3-0.34c0.23,0.01,0.25,0.2,0.25,0.37C67.97,52.83,67.96,53.21,67.96,53.67z"/>
	<path class="st10" d="M25.04,40c0,0.13,0,0.26-0.01,0.39c-0.72,0.58-1.36,0.44-1.86-0.26c-0.52-0.72-0.28-1.54,0.63-2.1
		c-0.25,0.76-0.67,1.5-0.08,2.09C24.07,40.46,24.62,40.38,25.04,40z"/>
	<path class="st10" d="M9.95,46.43c-0.23,0.46,0.25,1.27-0.28,1.29c-0.53,0.02-0.23-0.79-0.24-1.21c-0.02-0.5-0.25-1.46,0.19-1.43
		C10.28,45.13,9.67,46,9.95,46.43z"/>
	<path class="st10" d="M35.01,47.62c1.3-0.51,1.49-1.47,0.49-2.49c0.44-0.33,0.74-0.03,0.9,0.27c0.32,0.61,0.34,1.32-0.01,1.9
		C36.11,47.75,35.6,47.97,35.01,47.62z"/>
	<path class="st10" d="M40.88,45.23c0,0.13,0,0.26,0,0.38c-0.23,0.56-0.13,1.14-0.14,1.72c0,0.21,0.01,0.46-0.27,0.45
		c-0.29-0.01-0.23-0.28-0.23-0.47c0-0.61,0.02-1.23,0-1.84C40.2,44.66,40.57,45.07,40.88,45.23z"/>
	<path class="st10" d="M47.96,45.24c0,0.12-0.01,0.24-0.01,0.36c-0.24,0.59-0.12,1.22-0.15,1.83c-0.01,0.18-0.04,0.37-0.25,0.37
		c-0.23,0-0.23-0.21-0.23-0.38c0-0.65,0.01-1.3,0-1.95C47.29,44.67,47.66,45.08,47.96,45.24z"/>
	<path class="st10" d="M53.99,52.3c0.08,0.14,0.16,0.28,0.25,0.42c-0.24,0.6-0.14,1.23-0.16,1.85c-0.01,0.18-0.02,0.36-0.25,0.37
		c-0.24,0.01-0.25-0.19-0.25-0.36c0-0.73-0.02-1.45,0.01-2.18C53.6,52.03,53.77,51.99,53.99,52.3z"/>
	<path class="st10" d="M10.26,52.48c-0.07-0.06-0.14-0.11-0.22-0.17c1.1-0.49,1.67-0.17,1.65,1.01c-0.01,0.54,0.32,1.47-0.21,1.52
		c-0.46,0.05-0.17-0.9-0.22-1.41C11.2,52.8,11.02,52.35,10.26,52.48z"/>
	<path class="st10" d="M28.89,40.71c-1.23-0.33-1.71-1.55-1.08-2.48c0.11-0.16,0.25-0.24,0.42-0.17c0.14,0.06,0.13,0.21,0.12,0.35
		C28.24,39.82,28.24,39.82,28.89,40.71z"/>
	<path class="st10" d="M21,47.69c0.52-0.73,0.78-1.4,0.32-2.12c-0.07-0.12-0.06-0.28,0.11-0.32c0.08-0.02,0.22,0.01,0.27,0.08
		c0.34,0.37,0.5,0.84,0.37,1.32C21.96,47.09,21.83,47.63,21,47.69z"/>
	<path class="st10" d="M64.83,52.26c-0.21,0.77-0.42,1.55-0.64,2.32c-0.06,0.19-0.15,0.44-0.41,0.37c-0.38-0.11-0.15-0.37-0.07-0.57
		c0.25-0.71,0.51-1.41,0.76-2.12C64.59,52.25,64.71,52.26,64.83,52.26z"/>
	<path class="st10" d="M19.98,45.24c-0.22,0.87-0.52,1.71,0.54,2.34c-0.74,0.27-0.97-0.15-1.15-0.6
		C19.08,46.26,19.28,45.68,19.98,45.24z"/>
	<path class="st10" d="M9.02,40.35c0.14,0.03,0.27,0.05,0.41,0.08c-0.58,0.52-1.18,0.48-1.49-0.2c-0.34-0.72,0.11-1.14,0.85-1.25
		c0.09,0.07,0.18,0.15,0.27,0.22c-0.22,0.22-0.7,0.19-0.67,0.66C8.4,40.26,8.69,40.35,9.02,40.35z"/>
	<path class="st10" d="M46.08,40.22c0,0-0.02-0.03-0.02-0.03c0.2-0.59,0.18-1.21,0.17-1.82c0-0.19-0.05-0.48,0.21-0.5
		c0.39-0.03,0.26,0.33,0.27,0.53c0.02,0.58,0.01,1.16,0,1.75c0,0.18,0.1,0.48-0.2,0.46C46.36,40.6,46.22,40.35,46.08,40.22z"/>
	<path class="st10" d="M44.07,46.4c-0.18,0.45,0.24,1.3-0.28,1.31c-0.46,0.01-0.2-0.86-0.2-1.33c-0.01-0.46-0.27-1.31,0.22-1.3
		C44.31,45.08,43.91,45.94,44.07,46.4z"/>
	<path class="st10" d="M24.39,52.1c0.36,0.83,0.2,1.69,0.23,2.53c0.01,0.14-0.04,0.28-0.21,0.3c-0.17,0.02-0.26-0.08-0.26-0.23
		C24.19,53.82,24.02,52.94,24.39,52.1z"/>
	<path class="st10" d="M64.83,52.26c-0.12,0-0.24,0-0.36-0.01c0-0.1-0.04-0.25,0.01-0.29c0.3-0.28,0.06-1,0.69-0.98
		c0.65,0.02,0.49,0.68,0.68,1.07c-0.13,0-0.25,0-0.38,0C64.92,51.09,65.07,52.26,64.83,52.26z"/>
	<path class="st10" d="M58.59,54.78c-0.01-0.09-0.02-0.19-0.03-0.28c0.38-0.39,0.58-0.83,0.34-1.37c-0.08-0.19-0.24-0.39,0.08-0.47
		c0.22-0.06,0.38,0.07,0.43,0.32C59.55,53.77,59.49,54.46,58.59,54.78z"/>
	<path class="st10" d="M25.81,53.08c-0.03,0.61,0.01,1.19,0.48,1.66c-0.04,0.05-0.08,0.1-0.11,0.16c-0.8-0.38-1.14-0.96-0.79-1.84
		C25.54,53.07,25.68,53.08,25.81,53.08z"/>
	<path class="st10" d="M66.58,41.46c-0.03-0.16-0.1-0.29-0.06-0.34c0.26-0.34-0.03-0.93,0.5-1.13c0.07-0.03,0.26,0.07,0.26,0.08
		C67.2,40.58,67.11,41.11,66.58,41.46z"/>
	<path class="st10" d="M25.81,53.08c-0.14-0.01-0.28-0.01-0.42-0.02c0.18-1.08,1-0.86,1.72-0.84c0,0.08,0,0.16-0.01,0.24
		C26.52,52.32,26.1,52.56,25.81,53.08z"/>
	<path class="st10" d="M26.29,54.74c0.18,0.05,0.39-0.07,0.55,0.12c-0.21,0.18-0.43,0.11-0.66,0.04
		C26.22,54.84,26.25,54.79,26.29,54.74z"/>
	<path class="st10" d="M42.8,40.42c0.16-0.02,0.19,0.05,0.15,0.19C42.91,40.55,42.86,40.48,42.8,40.42z"/>
</g>
</svg>
