<?xml version="1.0" encoding="utf-8"?>
<!-- Generator: Adobe Illustrator 24.0.2, SVG Export Plug-In . SVG Version: 6.00 Build 0)  -->
<svg version="1.1" id="Capa_1" xmlns="http://www.w3.org/2000/svg" xmlns:xlink="http://www.w3.org/1999/xlink" x="0px" y="0px"
	 viewBox="0 0 17.11 16.67" style="enable-background:new 0 0 17.11 16.67;" xml:space="preserve">
<style type="text/css">
	.st0{fill:#FFFFFF;}
</style>
<g>
	<path class="st0" d="M13.35,13.77c-0.09,0-0.18-0.04-0.26-0.12c-0.23-0.23-2.15-2.15-2.15-2.15l-0.18-0.17l-0.24,0.09
		c-0.81,0.48-1.63,0.72-2.46,0.72c-0.46,0-0.93-0.07-1.4-0.22c-1.09-0.34-1.96-1.02-2.57-2.01c-1.2-1.95-0.76-4.52,1.02-5.96
		C5.94,3.27,6.98,2.9,8.05,2.9c1.17,0,2.28,0.44,3.13,1.23c1.63,1.51,2.19,4.34,0.31,6.47l-0.21,0.24l0.3,0.32l2,2
		c0.08,0.08,0.13,0.18,0.13,0.28c0,0.08-0.04,0.17-0.11,0.24C13.51,13.73,13.44,13.77,13.35,13.77z M8.03,3.58
		C6.98,3.58,6,3.99,5.25,4.74C4.51,5.49,4.1,6.47,4.1,7.52c0,2.17,1.77,3.93,3.94,3.93c1.05,0,2.04-0.41,2.78-1.16
		c0.74-0.75,1.15-1.74,1.15-2.78C11.96,5.35,10.2,3.58,8.03,3.58L8.03,3.58z"/>
</g>
</svg>
