<?xml version="1.0" encoding="utf-8"?>
<!-- Generator: Adobe Illustrator 24.0.2, SVG Export Plug-In . SVG Version: 6.00 Build 0)  -->
<svg version="1.1" id="Capa_1" xmlns="http://www.w3.org/2000/svg" xmlns:xlink="http://www.w3.org/1999/xlink" x="0px" y="0px"
	 viewBox="0 0 80.65 74.1" style="enable-background:new 0 0 80.65 74.1;" xml:space="preserve">
<style type="text/css">
	.st0{fill:#FFFFFF;}
	.st1{fill:#EFC100;}
	.st2{fill:#1D1D1B;}
	.st3{opacity:0.6;fill:#1D1D1B;}
	.st4{fill:url(#SVGID_19_);}
	.st5{opacity:0.5;}
	.st6{fill:url(#SVGID_28_);}
	.st7{fill:url(#SVGID_29_);}
	.st8{fill:#7FFF00;}
</style>
<g>
	<path class="st8" d="M65.33,35.3c0,1.2,0,2.41,0,3.61c-0.13,0.07-0.09,0.2-0.1,0.31c-0.09,1.07-0.25,2.13-0.48,3.18
		C62.43,52.67,54.29,60.24,43.89,61.8c-0.6,0.09-1.22,0.07-1.81,0.26c-1.2,0-2.41,0-3.61,0c-0.07-0.13-0.2-0.09-0.31-0.1
		c-2.23-0.19-4.4-0.67-6.5-1.45c-13.24-4.96-19.75-19.6-14.56-32.74c4.46-11.3,16.73-17.79,28.58-15.13
		c10.24,2.3,17.82,10.47,19.38,20.85C65.16,34.09,65.14,34.71,65.33,35.3z M38.25,36.54c0.03-0.17,0.15-0.16,0.23-0.19
		c1.22-0.46,1.92-1.35,2.12-2.63c0.07-0.47,0.07-0.94,0.02-1.41c-0.18-1.78-1.01-3.12-2.7-3.87c-0.92-0.4-1.88-0.51-2.86-0.52
		c-2.99-0.02-5.99,0-8.98-0.02c-0.43,0-0.55,0.13-0.54,0.55c0.01,5.91,0.02,11.81,0,17.72c0,0.5,0.16,0.58,0.61,0.58
		c2.95-0.02,5.89-0.02,8.84-0.01c0.72,0,1.43-0.05,2.13-0.22c1.89-0.47,3.33-1.48,3.92-3.41c0.41-1.33,0.39-2.69,0-4.04
		C40.62,37.66,39.76,36.75,38.25,36.54z M50.98,40.88c1.48,0,2.96-0.01,4.44,0.01c0.33,0,0.45-0.09,0.46-0.43
		c0.02-1.19-0.04-2.37-0.41-3.52c-0.56-1.75-1.62-3.05-3.37-3.74c-1.48-0.57-2.99-0.57-4.51-0.31c-1.28,0.22-2.44,0.74-3.34,1.69
		c-1.93,2.05-2.49,4.51-2,7.23c0.38,2.14,1.48,3.81,3.52,4.66c2.29,0.95,4.67,0.97,7,0.08c1.83-0.7,2.83-2.06,2.95-4.03
		c0.02-0.27-0.03-0.38-0.32-0.37c-0.88,0.01-1.76,0.02-2.64,0c-0.26,0-0.33,0.1-0.37,0.32c-0.16,0.74-0.66,1.18-1.33,1.43
		c-0.75,0.27-1.52,0.34-2.31,0.22c-1.53-0.22-2.47-1.21-2.63-2.76c-0.04-0.35,0.04-0.49,0.43-0.48
		C48.01,40.89,49.5,40.88,50.98,40.88z M49.12,31.35c1.17,0,2.34-0.01,3.51,0c0.28,0,0.41-0.07,0.4-0.38
		c-0.02-0.52-0.02-1.04,0-1.56c0.01-0.31-0.11-0.38-0.4-0.38c-2.32,0.01-4.65,0.01-6.97,0c-0.36,0-0.44,0.13-0.43,0.46
		c0.02,0.47,0.03,0.94,0,1.41c-0.03,0.38,0.13,0.46,0.48,0.46C46.84,31.33,47.98,31.35,49.12,31.35z"/>
	<path class="st8" d="M32.78,38.35c0.78,0,1.56-0.01,2.34,0c1.09,0.02,1.81,0.58,2.07,1.64c0.14,0.54,0.16,1.09,0.06,1.64
		c-0.19,1.03-0.74,1.55-1.78,1.72c-0.45,0.07-0.91,0.05-1.36,0.05c-1.28,0-2.57,0-3.85,0.01c-0.28,0-0.4-0.06-0.4-0.37
		c0.02-1.43,0.02-2.86,0-4.29c0-0.34,0.14-0.4,0.44-0.4C31.12,38.36,31.95,38.35,32.78,38.35z"/>
	<path class="st8" d="M32.65,35.47c-0.78,0-1.56-0.01-2.34,0.01c-0.32,0.01-0.46-0.07-0.46-0.43c0.02-1.12,0.02-2.24,0-3.36
		c-0.01-0.35,0.13-0.43,0.45-0.43c1.58,0.01,3.15,0,4.73,0.01c0.88,0,1.4,0.41,1.56,1.28c0.1,0.54,0.09,1.1-0.03,1.65
		c-0.19,0.88-0.62,1.24-1.53,1.27C34.24,35.49,33.45,35.47,32.65,35.47C32.65,35.47,32.65,35.47,32.65,35.47z"/>
	<path class="st8" d="M49.11,38.35c-0.88,0-1.75-0.01-2.63,0c-0.31,0-0.44-0.05-0.33-0.41c0.51-1.82,2.2-2.82,4.03-2.38
		c1.14,0.27,1.98,1.33,2.03,2.5c0.01,0.33-0.19,0.28-0.38,0.28C50.93,38.35,50.02,38.35,49.11,38.35z"/>
</g>
</svg>
