<?xml version="1.0" encoding="utf-8"?>
<!-- Generator: Adobe Illustrator 24.0.2, SVG Export Plug-In . SVG Version: 6.00 Build 0)  -->
<svg version="1.1" id="Capa_1" xmlns="http://www.w3.org/2000/svg" xmlns:xlink="http://www.w3.org/1999/xlink" x="0px" y="0px"
	 viewBox="0 0 80.65 74.1" style="enable-background:new 0 0 80.65 74.1;" xml:space="preserve">
<style type="text/css">
	.st0{fill:#FFFFFF;}
	.st1{fill:#EFC100;}
	.st2{fill:#1D1D1B;}
	.st3{opacity:0.6;fill:#1D1D1B;}
	.st4{fill:url(#SVGID_19_);}
	.st5{opacity:0.5;}
	.st6{fill:url(#SVGID_28_);}
	.st7{fill:url(#SVGID_29_);}
	.st8{fill:#7FFF00;}
</style>
<g>
	<path class="st8" d="M42.23,62.01c-1.33,0-2.66,0-4,0c-0.04-0.13-0.15-0.09-0.24-0.1c-0.91-0.13-1.84-0.23-2.74-0.41
		c-10.23-2.06-18.16-10.48-19.66-20.85c-0.08-0.55-0.05-1.12-0.26-1.65c0-1.33,0-2.66,0-4c0.15-0.06,0.09-0.19,0.1-0.29
		c0.24-2.4,0.8-4.73,1.7-6.97c4.19-10.53,15.29-17.01,26.49-15.42c5.85,0.83,10.9,3.32,14.86,7.7c6.45,7.12,8.47,15.47,5.52,24.59
		c-3.14,9.71-10.09,15.37-20.17,17.14C43.3,61.85,42.75,61.8,42.23,62.01z M42.94,33.76c0-0.66-0.01-1.32,0.01-1.98
		c0.01-0.3-0.09-0.38-0.39-0.38c-1.74,0.01-3.48,0.01-5.22,0c-0.31,0-0.38,0.11-0.37,0.39c0.08,5.72,0.01,11.44,0,17.16
		c0,0.33,0.1,0.41,0.41,0.4c1.67-0.01,3.35-0.03,5.02,0.01c0.46,0.01,0.55-0.14,0.55-0.57c-0.02-3.07,0-6.14-0.01-9.21
		c0-1.16,0.23-2.2,1.12-3.05c1.33-1.27,4.25-1.24,4.91,1.3c0.19,0.73,0.26,1.47,0.26,2.22c0,2.94,0.01,5.88-0.01,8.82
		c0,0.36,0.07,0.5,0.47,0.49c1.67-0.02,3.35-0.02,5.02,0c0.37,0,0.49-0.08,0.49-0.48c-0.02-3.23-0.01-6.47-0.01-9.7
		c0-1.21-0.14-2.39-0.48-3.56c-1.2-4.05-6-5.94-9.66-3.79C44.23,32.32,43.61,33.01,42.94,33.76z M33.68,40.42
		c0-2.84-0.01-5.69,0.01-8.53c0-0.37-0.09-0.49-0.48-0.49c-1.69,0.02-3.38,0.02-5.07,0c-0.35,0-0.43,0.1-0.43,0.44
		c0.01,5.69,0.01,11.37,0,17.06c0,0.36,0.09,0.47,0.46,0.46c1.69-0.02,3.38-0.02,5.07,0c0.37,0,0.46-0.1,0.46-0.46
		C33.67,46.07,33.68,43.24,33.68,40.42z M30.53,22.79c-0.13,0.01-0.26,0.02-0.39,0.03c-1.91,0.19-3.16,2.03-2.65,3.87
		c0.33,1.17,1.11,1.9,2.27,2.16c1.3,0.29,2.53,0.1,3.5-0.91c0.87-0.9,1.04-2.31,0.49-3.44C33.17,23.33,31.91,22.66,30.53,22.79z"/>
</g>
</svg>
