<?xml version="1.0" encoding="utf-8"?>
<!-- Generator: Adobe Illustrator 24.0.2, SVG Export Plug-In . SVG Version: 6.00 Build 0)  -->
<svg version="1.1" id="Capa_1" xmlns="http://www.w3.org/2000/svg" xmlns:xlink="http://www.w3.org/1999/xlink" x="0px" y="0px"
	 viewBox="0 0 80.65 74.1" style="enable-background:new 0 0 80.65 74.1;" xml:space="preserve">
<style type="text/css">
	.st0{fill:#FFFFFF;}
	.st1{fill:#EFC100;}
	.st2{fill:#1D1D1B;}
	.st3{opacity:0.6;fill:#1D1D1B;}
	.st4{fill:url(#SVGID_19_);}
	.st5{opacity:0.5;}
	.st6{fill:url(#SVGID_28_);}
	.st7{fill:url(#SVGID_29_);}
	.st8{fill:#7FFF00;}
</style>
<g>
	<polygon class="st8" points="51.11,29.29 51.11,29.29 51.11,29.28 	"/>
	<path class="st8" d="M65.05,33.35c-1.28-7.74-5.28-13.66-11.95-17.77c-3.23-1.99-6.78-3.09-10.57-3.42
		c-0.09-0.01-0.2,0.02-0.25-0.1h-3.9c-0.6,0.22-1.23,0.18-1.85,0.29c-7.75,1.32-13.65,5.37-17.76,12.05
		c-0.03,0.06-0.06,0.12-0.08,0.18c-0.05,0.08-0.11,0.16-0.15,0.25c-3.01,5.44-3.92,11.23-2.67,17.3
		C18.64,55.59,31.8,64.25,45.3,61.54c1.83-0.37,3.62-0.9,5.3-1.74c1.36-0.53,2.6-1.27,3.78-2.1c5.84-4.09,9.39-9.64,10.63-16.67
		c0.11-0.65,0.07-1.32,0.31-1.94v-4C65.11,34.53,65.15,33.93,65.05,33.35z M53.57,29.24c-0.59,0.75-1.28,1.39-2.02,1.97
		c-0.23,0.19-0.28,0.38-0.29,0.66c-0.08,3.19-0.81,6.22-2.47,8.97c-2.17,3.6-5.43,5.74-9.42,6.85c-0.17,0.05-0.34,0.09-0.51,0.14
		c-2.92,0.64-5.81,0.54-8.65-0.43c-1.17-0.4-2.28-0.9-3.31-1.63c2.88,0.08,5.51-0.62,7.94-2.38c-0.37-0.06-0.64-0.1-0.9-0.16
		c-1.94-0.4-3.21-1.6-4.06-3.33c-0.19-0.38-0.06-0.43,0.3-0.4c0.58,0.05,1.17,0.05,1.87-0.19c-2.73-0.9-4.09-2.75-4.29-5.49
		c0.62,0.19,1.19,0.51,1.85,0.54c0.13,0,0.26,0.01,0.52,0.03c-2.61-2.07-2.87-4.56-1.65-7.35c0.19-0.01,0.23,0.11,0.3,0.19
		c2.91,3.34,6.63,5.07,10.97,5.6c0.39,0.05,0.41-0.09,0.36-0.42c-0.27-1.62,0.07-3.14,1.08-4.41c1.51-1.9,4.41-2.82,6.83-1.53
		c0.45,0.24,0.9,0.48,1.26,0.83c0.3,0.29,0.61,0.31,0.98,0.23c0.51-0.11,1.01-0.25,1.49-0.45c0.48-0.2,0.94-0.43,1.51-0.7
		c-0.47,1.22-1.06,2.23-2.14,2.9c0.36,0.18,0.7-0.01,1.03-0.1c0.58-0.15,1.14-0.35,1.77-0.55C53.86,28.91,53.7,29.07,53.57,29.24z"
		/>
	<path class="st8" d="M51.11,29.28c0.01,0.01,0.01,0.03,0.02,0.04C51.13,29.31,51.12,29.3,51.11,29.28
		C51.11,29.29,51.11,29.28,51.11,29.28z"/>
</g>
</svg>
